<?xml version="1.0" encoding="UTF-8" standalone="no"?>
<!-- Created with Inkscape (http://www.inkscape.org/) -->

<svg
   xmlns:dc="http://purl.org/dc/elements/1.1/"
   xmlns:cc="http://creativecommons.org/ns#"
   xmlns:rdf="http://www.w3.org/1999/02/22-rdf-syntax-ns#"
   xmlns:svg="http://www.w3.org/2000/svg"
   xmlns="http://www.w3.org/2000/svg"
   xmlns:sodipodi="http://sodipodi.sourceforge.net/DTD/sodipodi-0.dtd"
   xmlns:inkscape="http://www.inkscape.org/namespaces/inkscape"
   width="100mm"
   height="100mm"
   viewBox="0 0 100 100"
   version="1.1"
   id="svg8"
   sodipodi:docname="cordee_logo_teal_1x1.svg"
   inkscape:version="0.92.2 5c3e80d, 2017-08-06">
  <defs
     id="defs2" />
  <sodipodi:namedview
     id="base"
     pagecolor="#ffffff"
     bordercolor="#666666"
     borderopacity="1.0"
     inkscape:pageopacity="0.0"
     inkscape:pageshadow="2"
     inkscape:zoom="1.0964844"
     inkscape:cx="175.68832"
     inkscape:cy="171.88457"
     inkscape:document-units="mm"
     inkscape:current-layer="layer1"
     showgrid="false"
     inkscape:window-width="960"
     inkscape:window-height="979"
     inkscape:window-x="0"
     inkscape:window-y="1"
     inkscape:window-maximized="0"
     inkscape:snap-grids="true">
    <inkscape:grid
       type="xygrid"
       id="grid10" />
  </sodipodi:namedview>
  <metadata
     id="metadata5">
    <rdf:RDF>
      <cc:Work
         rdf:about="">
        <dc:format>image/svg+xml</dc:format>
        <dc:type
           rdf:resource="http://purl.org/dc/dcmitype/StillImage" />
        <dc:title />
      </cc:Work>
    </rdf:RDF>
  </metadata>
  <g
     inkscape:label="Layer 1"
     inkscape:groupmode="layer"
     id="layer1"
     transform="translate(0,-197)">
    <g
       id="g6056"
       transform="matrix(0.91107493,0,0,0.91107493,-21.971419,14.975128)">
      <path
         inkscape:connector-curvature="0"
         id="path5127"
         d="m 34.128717,260.48989 c -0.221256,-0.17113 -0.441235,-0.31115 -0.488841,-0.31115 -0.04761,0 -0.24378,-0.14233 -0.435941,-0.3163 -0.192161,-0.17396 -0.469411,-0.35946 -0.616111,-0.41221 -0.216639,-0.0779 -0.472536,-0.33402 -0.472536,-0.47295 0,-0.0139 0.324748,-0.0405 0.721662,-0.0592 0.458078,-0.0216 0.798808,-0.0701 0.93288,-0.13301 0.143891,-0.0675 0.397088,-0.0992 0.794329,-0.0995 0.369479,-2.5e-4 0.679011,-0.036 0.844872,-0.0977 0.150159,-0.0558 0.623259,-0.11827 1.109641,-0.14648 0.466333,-0.0271 0.916871,-0.0818 1.001194,-0.12168 0.08432,-0.0399 0.558211,-0.0884 1.053083,-0.10777 0.523373,-0.0205 1.015224,-0.0736 1.175763,-0.12698 0.199312,-0.0663 0.805717,-0.10728 2.182587,-0.14766 1.9557,-0.0573 2.060478,-0.064 2.198043,-0.14006 0.04413,-0.0244 0.630257,-0.0555 1.302511,-0.0692 0.672254,-0.0137 1.276863,-0.0447 1.343576,-0.0688 0.06671,-0.0241 0.141112,-0.13728 0.165334,-0.2514 0.02422,-0.11412 0.08845,-0.22255 0.142727,-0.24096 0.05428,-0.0184 0.09869,-0.10086 0.09869,-0.18322 0,-0.27262 0.0867,-0.53868 0.175546,-0.53868 0.0494,0 0.104586,-0.11235 0.126672,-0.2579 0.02153,-0.14183 0.06825,-0.27485 0.103831,-0.29559 0.10676,-0.0622 0.428728,-0.67361 0.478688,-0.909 0.02562,-0.12071 0.08936,-0.24064 0.141651,-0.2665 0.05369,-0.0265 0.115102,-0.20901 0.141098,-0.41918 0.02532,-0.20469 0.08677,-0.43007 0.136569,-0.50086 0.170753,-0.24273 0.214914,-1.83844 0.152299,-5.50311 -0.03557,-2.08188 -0.01925,-1.91262 -0.189045,-1.96025 -0.07745,-0.0217 -0.140812,-0.0796 -0.140812,-0.12865 0,-0.049 -0.04852,-0.0892 -0.107819,-0.0892 -0.0593,0 -0.1285,-0.049 -0.153777,-0.1089 -0.02528,-0.0599 -0.10349,-0.1455 -0.173806,-0.19022 -0.07032,-0.0447 -0.127847,-0.12174 -0.127847,-0.17113 0,-0.0494 -0.04752,-0.0898 -0.105609,-0.0898 -0.05808,0 -0.105609,-0.0323 -0.105609,-0.0719 0,-0.0395 -0.07921,-0.16369 -0.176015,-0.27588 -0.09681,-0.11218 -0.176015,-0.23384 -0.176015,-0.27035 0,-0.0365 -0.04852,-0.0664 -0.107818,-0.0664 -0.0593,0 -0.128276,-0.049 -0.153279,-0.1089 -0.05958,-0.14272 -0.160801,-0.20013 -0.354956,-0.2013 -0.10014,-8e-4 -0.158413,0.0365 -0.158413,0.10082 0,0.12261 -0.318471,0.39607 -0.461267,0.39607 -0.07618,0 -0.101807,-0.0827 -0.10129,-0.32671 6.41e-4,-0.3026 0.02137,-0.34277 0.280933,-0.54451 0.195954,-0.15229 0.280449,-0.26835 0.280932,-0.38585 3.52e-4,-0.0924 0.05063,-0.19274 0.111663,-0.22293 0.07277,-0.036 0.131119,-0.19848 0.169504,-0.47206 0.0322,-0.22945 0.09264,-0.4535 0.134328,-0.4979 0.04169,-0.0444 0.09708,-0.37242 0.123102,-0.72896 0.02602,-0.35652 0.08832,-0.70423 0.138452,-0.77269 0.05582,-0.0762 0.109295,-0.45008 0.137979,-0.96456 0.02683,-0.48121 0.08377,-0.89328 0.133289,-0.96457 0.04755,-0.0684 0.106733,-0.42244 0.131521,-0.78664 0.02649,-0.38921 0.08817,-0.73551 0.149628,-0.8401 0.05751,-0.0979 0.123569,-0.31238 0.146805,-0.4767 0.04674,-0.33053 0.177529,-0.41688 0.631421,-0.41688 0.130725,0 0.255094,-0.0249 0.276375,-0.0553 0.02129,-0.0304 0.12612,-0.0745 0.232975,-0.0979 0.106855,-0.0234 0.263218,-0.0995 0.347473,-0.16899 0.129324,-0.10666 0.29083,-0.13359 1.036609,-0.17283 0.48588,-0.0255 1.11969,-0.0331 1.408466,-0.0167 0.459115,0.026 0.548957,0.0131 0.715436,-0.10259 0.104712,-0.0728 0.230248,-0.13237 0.278968,-0.13237 0.04872,0 0.105671,-0.0394 0.126559,-0.0875 0.02089,-0.0481 0.136456,-0.1066 0.256816,-0.12996 0.268861,-0.0522 0.543623,0.0889 0.606862,0.31157 0.02417,0.0851 0.07298,0.15479 0.108468,0.15479 0.03547,0 0.09463,0.07 0.131436,0.15557 0.0368,0.0856 0.11523,0.15557 0.174276,0.15557 0.05904,0 0.107349,0.028 0.107349,0.0622 0,0.0972 0.136226,0.0736 0.349397,-0.0606 0.151607,-0.0954 0.203394,-0.18772 0.232235,-0.4139 0.02237,-0.17554 0.082,-0.31329 0.150184,-0.34701 0.07745,-0.0383 0.113057,-0.14334 0.113057,-0.33348 0,-0.20054 0.03908,-0.30712 0.140813,-0.38412 0.07745,-0.0586 0.140812,-0.16926 0.140812,-0.24589 0,-0.0766 0.05829,-0.18942 0.12954,-0.25065 0.07124,-0.0612 0.149459,-0.16033 0.173803,-0.22022 0.02433,-0.0599 0.09279,-0.10891 0.152084,-0.10891 0.0593,0 0.107818,-0.0375 0.107818,-0.0834 0,-0.0459 0.07921,-0.11525 0.176016,-0.15425 0.09681,-0.039 0.176015,-0.0995 0.176015,-0.13444 0,-0.035 0.042,-0.0636 0.09334,-0.0636 0.05133,0 0.167746,-0.07 0.258692,-0.15557 0.09095,-0.0856 0.211788,-0.15558 0.268533,-0.15558 0.05675,0 0.143714,-0.049 0.19326,-0.1089 0.07764,-0.0939 0.214073,-0.1089 0.987542,-0.1089 0.642931,0 0.905588,0.0215 0.926095,0.0758 0.01575,0.0417 0.138067,0.094 0.271828,0.11614 0.133761,0.0222 0.275147,0.0931 0.314178,0.15755 0.03904,0.0645 0.115129,0.11721 0.169095,0.11721 0.136608,0 0.542182,0.35746 0.727773,0.64142 0.107985,0.16523 0.155955,0.34412 0.158545,0.59118 0.002,0.19485 0.0509,0.5643 0.108599,0.821 0.20191,0.89838 0.204604,1.08012 0.0186,1.25707 -0.138768,0.13204 -0.244741,0.16248 -0.643232,0.18476 -0.398207,0.0223 -0.50762,0.0537 -0.661685,0.18984 l -0.184589,0.16315 0.292054,0.3242 c 0.160625,0.17832 0.29205,0.37356 0.29205,0.43388 0,0.0603 0.04753,0.12579 0.105612,0.14549 0.134996,0.0458 0.134996,0.39107 0,0.5998 -0.05534,0.0856 -0.102449,0.25359 -0.104682,0.37338 -0.0024,0.11979 -0.06602,0.28782 -0.141741,0.37338 -0.07573,0.0856 -0.138387,0.20081 -0.139245,0.25609 -8.02e-4,0.0553 -0.06493,0.17171 -0.14238,0.25873 -0.07745,0.087 -0.140808,0.19193 -0.140808,0.23312 0,0.128 -0.534247,0.64442 -0.83569,0.80781 -0.222086,0.12038 -0.287453,0.1943 -0.288916,0.32671 -0.0012,0.10751 0.03543,0.17113 0.09856,0.17113 0.05525,0 0.149787,0.0874 0.210084,0.19424 0.08916,0.15797 0.09552,0.24802 0.03411,0.48228 -0.09517,0.36296 -0.09505,0.36268 -0.307188,0.66143 -0.265931,0.3745 -0.329903,0.53409 -0.330372,0.82415 -3.53e-4,0.21086 0.04223,0.30178 0.211242,0.45117 0.116417,0.1029 0.242089,0.18709 0.27928,0.18709 0.0372,0 0.08418,0.056 0.104435,0.12446 0.02024,0.0685 0.08731,0.12445 0.149022,0.12445 0.06171,0 0.112199,0.0395 0.112199,0.0879 0,0.1274 0.374984,0.16149 1.590905,0.14465 0.818633,-0.0113 1.08971,0.005 1.179725,0.071 0.06428,0.0472 0.219651,0.10416 0.345262,0.12668 0.203995,0.0366 0.230763,0.0663 0.250657,0.27838 l 0.02229,0.23743 -0.339101,-0.0288 c -0.186509,-0.0158 -0.596316,-0.0658 -0.910686,-0.1111 -0.539322,-0.0777 -0.59098,-0.0749 -0.915271,0.0489 l -0.343695,0.13123 -0.0573,0.58034 c -0.07155,0.72461 -0.07157,0.76165 -8.01e-4,1.48546 0.03564,0.36467 0.102017,0.65322 0.171877,0.74742 0.07649,0.10314 0.124073,0.34348 0.145146,0.73305 0.01724,0.31878 0.06453,0.59851 0.105094,0.62163 0.04055,0.0231 0.09644,0.24927 0.124181,0.50255 0.02774,0.25328 0.09398,0.51932 0.147193,0.59119 0.05321,0.0719 0.117918,0.24795 0.14381,0.3913 0.0259,0.14335 0.08875,0.27478 0.13971,0.29206 0.0575,0.0195 0.11144,0.2 0.14219,0.47581 0.02922,0.26248 0.08559,0.45661 0.137616,0.47426 0.05296,0.018 0.107818,0.21605 0.137577,0.49673 0.03079,0.29038 0.08397,0.47857 0.140703,0.49781 0.0592,0.0201 0.108744,0.22065 0.141164,0.57149 0.02826,0.30566 0.09126,0.58165 0.145017,0.63513 0.05562,0.0553 0.115405,0.33286 0.144111,0.66898 0.02698,0.31591 0.07492,0.57439 0.106535,0.57439 0.03163,0 0.09467,0.10973 0.140129,0.24384 0.04697,0.13854 0.136354,0.25625 0.206993,0.27258 0.06838,0.0158 0.420566,0.0151 0.782636,-0.002 0.496865,-0.023 0.680608,-0.0555 0.749242,-0.13256 0.0714,-0.0802 0.245294,-0.10626 0.809665,-0.12131 0.476456,-0.0127 0.801802,-0.0534 0.965158,-0.12058 0.166239,-0.0684 0.535342,-0.11307 1.1344,-0.13723 0.607644,-0.0245 0.925558,-0.0634 1.007016,-0.12315 0.07922,-0.0581 0.371019,-0.0969 0.872168,-0.11612 0.584887,-0.0224 0.794883,-0.0548 0.940021,-0.14522 0.102783,-0.064 0.225048,-0.11641 0.271695,-0.11641 0.154834,0 0.419042,-0.27757 0.420276,-0.44152 8.02e-4,-0.0888 0.06458,-0.21217 0.142031,-0.27412 0.07745,-0.0619 0.141362,-0.1433 0.142031,-0.18078 0.0016,-0.0948 0.314952,-0.34809 0.43114,-0.34859 0.05262,-2.5e-4 0.190735,-0.056 0.306902,-0.12405 0.116172,-0.068 0.280262,-0.12383 0.364646,-0.12405 0.103196,-2.5e-4 0.224206,-0.0931 0.369628,-0.28356 0.118914,-0.15574 0.21621,-0.29883 0.21621,-0.31798 0,-0.0192 0.190093,-0.1967 0.422437,-0.39455 0.232339,-0.19785 0.422433,-0.3908 0.422433,-0.42878 0,-0.038 0.04753,-0.0691 0.105609,-0.0691 0.05809,0 0.105609,-0.0292 0.105609,-0.0649 0,-0.0357 0.142576,-0.19961 0.316832,-0.36427 0.174247,-0.16466 0.316976,-0.32448 0.31716,-0.35517 2.13e-4,-0.0307 0.114192,-0.16535 0.253353,-0.29928 0.219259,-0.21103 0.259236,-0.2982 0.299679,-0.65342 0.04648,-0.40821 0.04753,-0.40984 0.256415,-0.39614 0.115362,0.008 0.220622,0.0426 0.233894,0.0778 0.01327,0.0352 0.06647,0.064 0.11818,0.064 0.148341,0 0.526948,-0.20997 0.527441,-0.29251 2.13e-4,-0.0411 0.04256,-0.0971 0.09405,-0.12446 0.155251,-0.0825 0.338686,-0.67217 0.263498,-0.84697 -0.03588,-0.0834 -0.08812,-0.52628 -0.11606,-0.98408 -0.03187,-0.52237 -0.08615,-0.88037 -0.145742,-0.96124 -0.05223,-0.0709 -0.115631,-0.345 -0.140889,-0.60915 -0.04089,-0.42762 -0.06674,-0.49338 -0.235566,-0.59964 -0.207539,-0.13061 -0.352496,-0.0744 -0.352496,0.13662 0,0.0616 -0.04376,0.11201 -0.09724,0.11201 -0.07254,0 -0.110288,0.15405 -0.148642,0.60674 -0.03728,0.44021 -0.08791,0.65209 -0.184385,0.77193 -0.07314,0.0908 -0.132983,0.19381 -0.132983,0.22881 0,0.035 -0.09448,0.10528 -0.209952,0.1562 -0.166988,0.0736 -0.246125,0.0777 -0.386685,0.0201 -0.164948,-0.0676 -0.176765,-0.1027 -0.177278,-0.52582 -3.53e-4,-0.30715 0.03495,-0.50127 0.109578,-0.60193 0.06058,-0.0817 0.128863,-0.31175 0.151751,-0.51121 0.02289,-0.19945 0.08073,-0.41865 0.128522,-0.4871 0.04779,-0.0684 0.10876,-0.33294 0.135485,-0.58775 0.02674,-0.25481 0.09359,-0.52007 0.148585,-0.58947 0.147812,-0.18653 0.132571,-0.83468 -0.02325,-0.98718 -0.108299,-0.10601 -0.12364,-0.26943 -0.126819,-1.35045 -0.0032,-1.05525 -0.0208,-1.25306 -0.124834,-1.39337 -0.06667,-0.0899 -0.170937,-0.16353 -0.231706,-0.16353 -0.06076,0 -0.191036,-0.056 -0.28949,-0.12446 -0.09846,-0.0684 -0.221151,-0.12446 -0.272653,-0.12446 -0.0515,0 -0.127548,-0.056 -0.168997,-0.12446 -0.0531,-0.0877 -0.147422,-0.12446 -0.319305,-0.12446 -0.164803,0 -0.243944,-0.0289 -0.243944,-0.0891 0,-0.049 -0.06004,-0.10599 -0.133428,-0.12658 -0.08224,-0.0231 -0.150778,-0.11917 -0.178649,-0.25049 -0.02485,-0.11718 -0.09136,-0.29125 -0.14776,-0.38681 -0.156361,-0.26496 -0.144548,-1.49285 0.01587,-1.64952 0.08738,-0.0853 0.127336,-0.26555 0.149423,-0.67387 0.02197,-0.40592 0.05533,-0.55738 0.122834,-0.55738 0.05688,0 0.111277,-0.1142 0.140816,-0.2956 0.02646,-0.16257 0.09792,-0.3458 0.158783,-0.40718 0.07336,-0.074 0.124101,-0.29056 0.150545,-0.6426 0.03123,-0.4154 0.06655,-0.54421 0.162358,-0.59159 0.06735,-0.0333 0.122674,-0.1082 0.122926,-0.16639 2.81e-4,-0.0582 0.06342,-0.18982 0.140348,-0.2925 0.07694,-0.10268 0.140099,-0.23828 0.140351,-0.30133 2.81e-4,-0.0631 0.06383,-0.18585 0.141277,-0.27287 0.07744,-0.087 0.140809,-0.21022 0.140809,-0.27377 0,-0.0635 0.06337,-0.15052 0.140812,-0.19327 0.07744,-0.0428 0.140812,-0.11387 0.140812,-0.15805 0,-0.0442 0.04753,-0.0965 0.105606,-0.11615 0.05809,-0.0197 0.105617,-0.0689 0.105617,-0.10932 0,-0.0404 0.154417,-0.21245 0.343156,-0.38228 0.430322,-0.38722 0.54095,-0.46436 0.665956,-0.46436 0.05583,0 0.119527,-0.0873 0.144617,-0.19816 0.02469,-0.10899 0.08796,-0.24201 0.140664,-0.29559 0.0527,-0.0536 0.111509,-0.22345 0.130686,-0.37747 0.04341,-0.34864 0.367324,-0.79858 0.613004,-0.8515 0.09883,-0.0213 0.255256,-0.0904 0.347609,-0.15367 0.09234,-0.0632 0.210044,-0.11497 0.261546,-0.11497 0.0515,0 0.127552,-0.056 0.169,-0.12446 0.04144,-0.0685 0.122758,-0.12446 0.180698,-0.12446 0.05794,0 0.122842,-0.0403 0.144215,-0.0895 0.06421,-0.1479 0.672972,-0.39003 0.871988,-0.34682 0.294689,0.064 0.735922,0.25792 0.795569,0.34971 0.03095,0.0477 0.10225,0.0867 0.15841,0.0867 0.05616,0 0.10211,0.0446 0.10211,0.0992 0,0.0545 0.06336,0.11382 0.140812,0.13172 0.07745,0.0179 0.140816,0.0644 0.140816,0.10328 0,0.0759 0.376054,0.41259 0.460839,0.41259 0.117398,0 0.381041,-0.32712 0.42301,-0.52485 0.02489,-0.11731 0.08568,-0.227 0.135064,-0.24375 0.04939,-0.0168 0.111077,-0.1307 0.137081,-0.25323 0.02646,-0.12467 0.08907,-0.22277 0.142171,-0.22277 0.05219,0 0.113125,-0.042 0.135413,-0.0934 0.02385,-0.0548 0.129436,-0.0933 0.256166,-0.0933 0.126726,0 0.23234,0.0385 0.256162,0.0933 0.02229,0.0514 0.09711,0.0934 0.166275,0.0934 0.06916,0 0.143979,0.042 0.166271,0.0933 0.05458,0.12572 0.508669,0.12572 0.563249,0 0.02229,-0.0513 0.08904,-0.0933 0.148344,-0.0933 0.0593,0 0.108824,-0.049 0.110055,-0.1089 0.0012,-0.0599 0.04647,-0.16049 0.100518,-0.22355 0.05406,-0.063 0.120273,-0.23107 0.147162,-0.37338 0.0269,-0.14231 0.108379,-0.33307 0.181107,-0.42392 0.106471,-0.133 0.132226,-0.27782 0.132226,-0.74341 0,-0.52251 0.0178,-0.60092 0.184477,-0.81353 0.137209,-0.175 0.249965,-0.24542 0.440039,-0.27481 0.140555,-0.0218 0.32573,-0.0784 0.411497,-0.12588 0.175883,-0.0974 1.216976,-0.12246 1.216976,-0.0293 0,0.0314 0.166335,0.0885 0.369632,0.12682 0.579091,0.10927 1.320116,0.47612 1.320116,0.65353 0,0.0249 0.06336,0.11648 0.140808,0.20351 0.09162,0.10295 0.140812,0.25245 0.140812,0.42795 0,0.15514 0.06448,0.37906 0.151772,0.52709 0.126241,0.21407 0.15271,0.3688 0.157372,0.91981 0.0049,0.57935 -0.01411,0.69196 -0.151772,0.8977 -0.08655,0.1294 -0.157372,0.29069 -0.157372,0.35844 0,0.0677 -0.06336,0.17113 -0.140812,0.22974 -0.07744,0.0586 -0.140808,0.1384 -0.140808,0.17732 0,0.0389 -0.130635,0.20192 -0.290295,0.36224 -0.276634,0.27778 -0.288644,0.30661 -0.255349,0.61287 0.01924,0.17676 0.07064,0.33191 0.11428,0.34477 0.04595,0.0135 0.07933,0.16663 0.07933,0.36386 0,0.37448 -0.221625,0.89374 -0.381458,0.89374 -0.05297,0 -0.113402,0.0394 -0.134294,0.0875 -0.02088,0.0481 -0.134587,0.10622 -0.252671,0.12915 -0.227437,0.0442 -0.242746,0.0737 -0.41935,0.81016 -0.114657,0.47812 -0.219925,1.38112 -0.220146,1.88845 -1.4e-4,0.25142 -0.0496,0.60736 -0.109991,0.79096 -0.144392,0.43901 -0.112459,0.83334 0.07459,0.9211 0.07745,0.0364 0.226659,0.11621 0.331579,0.17748 0.104923,0.0613 0.274285,0.11139 0.376362,0.11139 0.102082,0 0.27378,0.0555 0.38155,0.12333 0.130591,0.0822 0.369051,0.1369 0.714929,0.16405 0.285437,0.0224 0.554082,0.0651 0.596989,0.0948 0.110376,0.0764 1.137274,0.30238 1.374412,0.30238 0.10878,0 0.324564,-0.0584 0.479514,-0.12979 0.221112,-0.10187 0.291446,-0.17552 0.326837,-0.34227 0.02477,-0.11686 0.07609,-0.21247 0.113983,-0.21247 0.03788,0 0.122654,-0.0587 0.188378,-0.13043 0.108143,-0.11804 0.147383,-0.12379 0.413145,-0.0605 0.161517,0.0384 0.312707,0.0971 0.335989,0.13042 0.02329,0.0333 0.10482,0.0605 0.181194,0.0605 0.07638,0 0.156739,0.0412 0.178581,0.0915 0.02185,0.0503 0.147575,0.12594 0.279412,0.16808 0.131837,0.0421 0.239703,0.0997 0.239703,0.12788 0,0.0282 0.08325,0.0792 0.184987,0.11344 0.170852,0.0574 0.182225,0.0838 0.148857,0.34544 -0.02461,0.1932 -0.08346,0.31258 -0.184982,0.37543 -0.149258,0.0924 -0.185953,0.23841 -0.106122,0.42228 0.02882,0.0664 0.131841,0.0984 0.316827,0.0984 0.217003,0 0.274093,0.0233 0.274093,0.11201 0,0.0616 0.03804,0.14562 0.08448,0.18669 0.06571,0.0581 0.06571,0.0913 0,0.14935 -0.04647,0.0411 -0.08583,0.11808 -0.08747,0.17113 -0.0016,0.0531 -0.113106,0.15851 -0.247701,0.23436 -0.233361,0.1315 -0.31245,0.13765 -1.704363,0.13258 -0.874998,-0.003 -1.554904,0.0218 -1.697464,0.0623 -0.173907,0.0494 -0.277957,0.0486 -0.38723,-0.003 -0.08218,-0.0389 -0.402879,-0.0673 -0.712668,-0.0631 -0.3622,0.005 -0.74573,-0.0357 -1.074484,-0.11386 -0.281171,-0.0668 -0.661362,-0.12165 -0.844866,-0.12186 -0.183507,-1.9e-4 -0.426617,-0.0432 -0.540252,-0.0956 -0.113634,-0.0524 -0.319573,-0.11973 -0.45764,-0.14969 -0.138066,-0.03 -0.350351,-0.0899 -0.471746,-0.13314 -0.206536,-0.0736 -0.232937,-0.067 -0.411105,0.10293 -0.162294,0.15478 -0.18394,0.21726 -0.146661,0.42332 0.02409,0.13296 0.09024,0.30042 0.147086,0.37216 0.05684,0.0717 0.103349,0.1786 0.103349,0.2375 0,0.0589 0.05753,0.14367 0.127844,0.1884 0.07032,0.0447 0.148533,0.13032 0.173811,0.19022 0.02525,0.0599 0.09109,0.1089 0.146244,0.1089 0.05515,0 0.118521,0.042 0.140812,0.0934 0.02229,0.0513 0.0849,0.0933 0.139129,0.0933 0.104539,0 0.185315,0.29967 0.186662,0.69247 3.53e-4,0.12416 0.0483,0.26061 0.106383,0.30321 0.05809,0.0426 0.105609,0.11825 0.105609,0.16808 0,0.10238 0.530708,0.57515 0.657005,0.58528 0.04524,0.004 0.168788,0.002 0.27455,-0.005 0.473983,-0.0275 0.668582,0.20942 0.231526,0.28189 -0.322248,0.0534 -0.453399,0.28774 -0.507503,0.90669 -0.03339,0.38203 -0.01892,0.50345 0.07389,0.62059 0.06347,0.0801 0.115402,0.21682 0.115402,0.30384 0,0.087 0.06337,0.2627 0.140816,0.39042 0.07744,0.12772 0.141514,0.28132 0.142376,0.34134 8.02e-4,0.06 0.06352,0.17914 0.139245,0.26471 0.07573,0.0856 0.138383,0.2008 0.139245,0.25608 8.02e-4,0.0553 0.06494,0.17172 0.142376,0.25874 0.07745,0.087 0.140816,0.21682 0.140816,0.28843 0,0.0716 0.06336,0.18621 0.140812,0.25466 0.07745,0.0685 0.140813,0.17669 0.140813,0.24053 0,0.0638 0.05923,0.18285 0.131632,0.26448 0.0724,0.0816 0.154125,0.23942 0.181612,0.35065 0.0275,0.11124 0.07791,0.20225 0.112075,0.20225 0.03411,0 0.09622,0.11201 0.13793,0.24892 0.0417,0.13691 0.103505,0.24893 0.137337,0.24893 0.03379,0 0.0825,0.10981 0.108151,0.24404 0.02565,0.13422 0.09006,0.25876 0.143113,0.27676 0.05306,0.018 0.117583,0.1322 0.143394,0.2538 0.02609,0.12299 0.08889,0.22107 0.141505,0.22107 0.05202,0 0.114974,0.0961 0.139899,0.2135 0.02489,0.11742 0.08797,0.22796 0.140115,0.24565 0.05215,0.0177 0.11551,0.12969 0.140816,0.24892 0.02533,0.11922 0.08867,0.23123 0.140808,0.24892 0.05214,0.0177 0.115507,0.1297 0.140813,0.24891 0.02533,0.11923 0.08867,0.23125 0.140812,0.24893 0.05214,0.0177 0.11551,0.12969 0.140812,0.24892 0.02529,0.11922 0.08743,0.23081 0.138059,0.24799 0.05063,0.0172 0.112912,0.11519 0.138411,0.21781 0.02549,0.10262 0.08982,0.21847 0.142929,0.25743 0.05311,0.039 0.117009,0.15313 0.142011,0.25373 0.02501,0.1006 0.106242,0.21167 0.180541,0.24681 0.0743,0.0352 0.135092,0.10181 0.135092,0.14814 0,0.14786 0.477827,0.17506 2.875633,0.16375 0.667319,-0.003 0.731332,-0.0139 0.765076,-0.12791 0.02024,-0.0684 0.06481,-0.12445 0.09902,-0.12445 0.08212,0 0.08064,-0.48042 -0.0016,-0.52535 -0.03511,-0.0192 -0.08587,-0.18185 -0.112832,-0.3615 -0.02698,-0.17965 -0.101216,-0.42465 -0.165012,-0.54445 -0.08213,-0.15422 -0.114829,-0.38129 -0.112011,-0.77787 0.0036,-0.4985 0.0269,-0.5977 0.212521,-0.90234 l 0.208545,-0.34226 0.426305,-0.0311 c 0.274542,-0.02 0.470123,-0.0699 0.549376,-0.14002 0.06768,-0.0599 0.182373,-0.1089 0.254855,-0.1089 0.07249,0 0.1741,-0.0534 0.225802,-0.11864 0.08646,-0.1091 0.331239,-0.16301 0.634265,-0.13966 0.133212,0.0103 0.547018,0.72199 0.547018,0.94085 0,0.0702 0.06337,0.17561 0.140817,0.23422 0.07744,0.0586 0.140808,0.18236 0.140808,0.27499 0,0.0926 0.04795,0.21079 0.106551,0.26259 0.05861,0.0518 0.126286,0.18137 0.150397,0.28794 0.02413,0.10656 0.102892,0.29613 0.17507,0.42126 0.07218,0.12513 0.131231,0.27661 0.131231,0.33662 0,0.06 0.06336,0.13909 0.140813,0.17573 0.07744,0.0366 0.140812,0.0958 0.140812,0.13143 0,0.0855 0.39024,0.42863 0.487428,0.42863 0.0417,0 0.07582,0.0359 0.07582,0.0797 0,0.12032 0.409995,0.24054 0.84487,0.24773 0.500071,0.008 1.594121,-0.12643 1.865761,-0.22972 0.59831,-0.2275 1.02031,-0.34914 1.33771,-0.38561 0.19362,-0.0223 0.39436,-0.07 0.4461,-0.10615 0.0517,-0.0362 0.56024,-0.0836 1.13002,-0.10546 0.95194,-0.0366 1.05138,-0.0516 1.22605,-0.18585 0.10454,-0.0803 0.19009,-0.19704 0.19009,-0.25932 0,-0.0623 0.0291,-0.11323 0.0646,-0.11323 0.13176,0 0.21714,-0.65889 0.22015,-1.69884 0.002,-0.76884 0.0317,-1.14054 0.10445,-1.31933 0.0558,-0.1369 0.12228,-0.5065 0.14786,-0.82132 0.0306,-0.37714 0.0774,-0.58289 0.13704,-0.60312 0.0498,-0.0169 0.11248,-0.16536 0.13928,-0.32993 0.0268,-0.16457 0.0935,-0.34452 0.14822,-0.39989 0.0695,-0.0704 0.10403,-0.29516 0.11461,-0.74676 0.0124,-0.53001 -0.007,-0.67374 -0.10809,-0.79995 -0.08,-0.1 -0.12322,-0.26971 -0.12322,-0.48448 0,-0.21008 0.0449,-0.39118 0.12322,-0.49676 0.17315,-0.2335 0.18201,-1.54356 0.0112,-1.65464 -0.0643,-0.0418 -0.13373,-0.21815 -0.163,-0.41394 -0.0281,-0.1876 -0.0883,-0.36145 -0.13381,-0.38634 -0.0486,-0.0265 -0.0767,-0.16857 -0.0681,-0.34344 0.008,-0.164 0.0195,-0.3962 0.0253,-0.51599 0.0122,-0.24964 -0.17419,-0.99297 -0.26329,-1.05052 -0.0328,-0.0212 -0.0934,-0.0926 -0.13461,-0.15867 -0.0413,-0.0661 -0.21551,-0.16061 -0.38724,-0.21005 -0.46068,-0.13264 -0.51444,-0.16289 -0.61668,-0.34707 -0.0825,-0.14867 -0.0756,-0.19445 0.0606,-0.3984 0.1918,-0.28733 0.15737,-0.67038 -0.10075,-1.12059 -0.19024,-0.33183 -0.33196,-0.4035 -0.76493,-0.38685 -0.32884,0.0126 -0.94169,-0.16159 -0.99426,-0.28266 -0.0215,-0.0496 -0.0907,-0.0901 -0.15369,-0.0901 -0.063,0 -0.20562,-0.0573 -0.31691,-0.12736 -0.17962,-0.11305 -0.23625,-0.11936 -0.50372,-0.0561 -0.16574,0.0392 -0.33903,0.0985 -0.38509,0.13187 -0.16144,0.11689 -0.46936,0.0303 -0.58289,-0.16394 -0.0593,-0.10146 -0.14743,-0.22247 -0.19584,-0.26892 -0.0484,-0.0464 -0.088,-0.13874 -0.088,-0.20508 0,-0.0663 -0.0634,-0.16858 -0.14081,-0.22719 -0.07744,-0.0586 -0.140812,-0.12838 -0.140812,-0.15504 0,-0.0266 -0.130539,-0.16044 -0.290087,-0.29729 -0.287826,-0.24689 -0.289842,-0.25179 -0.258964,-0.62911 0.02217,-0.27078 0.06514,-0.39711 0.149274,-0.43873 0.08542,-0.0422 0.118156,-0.14255 0.118156,-0.36206 0,-0.19346 0.04027,-0.3392 0.111005,-0.40173 0.06106,-0.054 0.137012,-0.25899 0.168788,-0.45561 0.03179,-0.19662 0.09303,-0.4275 0.13612,-0.51307 0.22046,-0.43777 0.19319,-2.83507 -0.0359,-3.15599 -0.05412,-0.0758 -0.09839,-0.16682 -0.09839,-0.20224 0,-0.0354 -0.06694,-0.12358 -0.148737,-0.19589 -0.116822,-0.10326 -0.139959,-0.17927 -0.107838,-0.35425 0.02245,-0.12253 0.08943,-0.24678 0.148745,-0.27612 0.05931,-0.0293 0.10783,-0.1063 0.10783,-0.17104 0,-0.0647 0.0279,-0.13293 0.062,-0.15156 0.11369,-0.0621 0.13391,-0.35873 0.0358,-0.52495 -0.05661,-0.0959 -0.0971,-0.35529 -0.09735,-0.62376 -8.02e-4,-0.41071 0.01832,-0.47494 0.17581,-0.60396 0.0969,-0.0794 0.28484,-0.16238 0.41756,-0.18439 0.13272,-0.022 0.25836,-0.0793 0.27918,-0.12724 0.0208,-0.048 0.0792,-0.0872 0.12968,-0.0872 0.10293,0 0.30583,-0.31262 0.37688,-0.58065 0.0257,-0.0969 0.0901,-0.1909 0.14325,-0.20891 0.0531,-0.018 0.0966,-0.0724 0.0966,-0.12097 0,-0.0485 0.0792,-0.11485 0.17602,-0.14738 0.0968,-0.0325 0.17601,-0.0866 0.17601,-0.1201 0,-0.0335 0.10869,-0.079 0.24154,-0.101 0.13285,-0.022 0.25744,-0.0767 0.27687,-0.12141 0.0194,-0.0448 0.14043,-0.10124 0.26889,-0.12553 0.12847,-0.0242 0.27335,-0.0725 0.32196,-0.1071 0.10989,-0.0782 0.60477,-0.071 0.93205,0.0137 0.38533,0.0997 0.73699,0.0768 0.93495,-0.0608 0.0984,-0.0684 0.20611,-0.12446 0.23923,-0.12446 0.0331,0 0.0915,-0.063 0.1297,-0.14002 0.065,-0.13098 0.11722,-0.14093 0.80876,-0.15421 0.4066,-0.008 0.85016,-0.0184 0.98569,-0.0236 0.13553,-0.005 0.40483,0.0156 0.59845,0.0461 0.32989,0.0519 0.35203,0.0671 0.35203,0.24134 0,0.16628 -0.0205,0.1838 -0.194,0.16586 -0.2238,-0.0231 -0.32672,0.13511 -0.27814,0.42764 0.0227,0.13698 0.077,0.18585 0.24192,0.21786 0.19951,0.0387 0.28366,-0.003 0.35284,-0.17574 0.0106,-0.0265 0.14578,-0.0647 0.30038,-0.085 0.27355,-0.0359 0.99145,-0.30378 1.03421,-0.38595 0.0295,-0.0567 0.60362,-0.38325 0.67377,-0.38325 0.21911,0 1.00208,-0.47183 1.00208,-0.60387 0,-0.0419 0.0634,-0.10625 0.14082,-0.14289 0.0774,-0.0366 0.14081,-0.10763 0.14081,-0.15776 0,-0.0501 0.0454,-0.0912 0.10086,-0.0912 0.0555,0 0.12098,-0.056 0.14556,-0.12446 0.0246,-0.0684 0.0737,-0.12446 0.10925,-0.12446 0.0355,0 0.26306,-0.18622 0.50569,-0.41382 0.24263,-0.22761 0.54975,-0.50064 0.68249,-0.60675 0.13273,-0.1061 0.29907,-0.24192 0.36963,-0.30182 0.0706,-0.0599 0.15663,-0.1089 0.19125,-0.1089 0.0346,0 0.16692,-0.0858 0.29398,-0.19073 0.12704,-0.10491 0.32841,-0.23483 0.44747,-0.28872 0.11907,-0.0539 0.23233,-0.11884 0.25169,-0.14432 0.0194,-0.0255 0.2402,-0.0926 0.49078,-0.14912 0.38479,-0.0868 0.51058,-0.0909 0.80966,-0.0263 0.19475,0.0421 0.4382,0.1271 0.54098,0.18893 0.10279,0.0618 0.20819,0.11239 0.23424,0.11239 0.0734,0 0.45895,0.35633 0.45895,0.42417 0,0.0332 0.0445,0.0755 0.099,0.0939 0.0544,0.0185 0.11973,0.11713 0.14511,0.21926 0.0254,0.10214 0.0886,0.20009 0.14044,0.21768 0.0519,0.0176 0.11565,0.14375 0.14177,0.28036 0.0261,0.13661 0.0896,0.26268 0.14119,0.28016 0.0515,0.0175 0.11553,0.11958 0.14219,0.22689 0.0267,0.10731 0.0901,0.20924 0.14109,0.22651 0.0509,0.0172 0.11183,0.099 0.1353,0.1817 0.0235,0.0827 0.1293,0.19922 0.23517,0.25903 0.41123,0.23229 0.86136,0.72476 0.86136,0.94237 0,0.0704 -0.0694,0.18508 -0.15409,0.25486 -0.13139,0.1082 -0.24737,0.12689 -0.78741,0.12689 h -0.63333 l -0.33908,0.31094 c -0.18649,0.17102 -0.33908,0.33904 -0.33908,0.37338 0,0.0343 -0.0454,0.0624 -0.10087,0.0624 -0.0555,0 -0.12098,0.056 -0.14556,0.12446 -0.0246,0.0684 -0.0728,0.12446 -0.10716,0.12446 -0.0344,0 -0.0827,0.10502 -0.10745,0.23336 -0.0248,0.12836 -0.10159,0.30472 -0.17079,0.39192 -0.0861,0.10849 -0.13444,0.30955 -0.15314,0.6368 -0.0353,0.61923 -0.11845,0.70079 -0.70391,0.69109 -0.26206,-0.004 -0.44853,-0.0377 -0.48251,-0.0863 -0.0305,-0.0436 -0.21718,-0.0929 -0.41491,-0.10974 l -0.35954,-0.0305 v 0.33636 c 0,0.25933 0.0322,0.36074 0.14081,0.44291 0.0774,0.0586 0.14082,0.15364 0.14082,0.21118 0,0.0575 0.0554,0.15875 0.12321,0.22491 0.11255,0.10991 0.1232,0.31473 0.1232,2.36964 0,2.04213 -0.0113,2.26352 -0.1232,2.40321 -0.0678,0.0846 -0.12321,0.23192 -0.12321,0.32731 0,0.0965 -0.0625,0.22077 -0.14082,0.28002 -0.0868,0.0657 -0.14081,0.18358 -0.14081,0.30746 0,0.12665 -0.0455,0.22336 -0.12321,0.26172 -0.10848,0.0536 -0.12595,0.18968 -0.14616,1.13879 -0.0222,1.04543 0.043,1.54468 0.20179,1.54468 0.0372,0 0.0677,0.091 0.0679,0.20224 0,0.14468 0.0713,0.27056 0.24967,0.44222 0.13714,0.13198 0.26768,0.321 0.29009,0.42005 0.0224,0.099 0.0815,0.18009 0.13137,0.18009 0.0509,0 0.11151,0.10922 0.1382,0.24891 0.0293,0.15304 0.0859,0.24893 0.14701,0.24893 0.0547,0 0.0994,0.0351 0.0994,0.078 0,0.10695 0.38508,0.41985 0.51669,0.41985 0.14982,0 0.32818,0.17237 0.32818,0.31715 0,0.085 -0.0629,0.13268 -0.20913,0.15854 -0.11504,0.0203 -0.22316,0.0826 -0.24028,0.13846 -0.15265,0.49757 -0.1077,1.37721 0.0704,1.37721 0.0536,0 0.0974,0.041 0.0974,0.0912 0,0.0501 0.0608,0.1199 0.13509,0.15506 0.0743,0.0351 0.15544,0.1458 0.18031,0.24591 0.0249,0.1001 0.0891,0.19687 0.14265,0.21505 0.0536,0.0182 0.11854,0.13252 0.14435,0.25412 0.0258,0.12159 0.0875,0.22107 0.13716,0.22107 0.10231,0 0.17572,0.13575 0.17572,0.32494 0,0.0704 0.0481,0.15915 0.10686,0.19716 0.0615,0.0398 0.12482,0.21436 0.14919,0.41135 0.0233,0.18825 0.0861,0.40429 0.13957,0.4801 0.12299,0.17435 0.12287,0.2971 -8e-4,0.4711 -0.0537,0.0758 -0.11983,0.2489 -0.14686,0.38465 -0.0271,0.13575 -0.10979,0.3221 -0.18392,0.4141 -0.0741,0.092 -0.13476,0.19796 -0.13476,0.23546 0,0.0375 -0.0464,0.0682 -0.10314,0.0682 -0.0567,0 -0.13509,0.0528 -0.17415,0.11731 -0.0391,0.0645 -0.159,0.13679 -0.26651,0.16062 -0.1075,0.0238 -0.25472,0.0995 -0.32714,0.16816 -0.13834,0.13116 -0.13877,0.11302 0.0247,1.04744 0.0329,0.18824 0.0626,0.60907 0.0658,0.93516 0.005,0.45642 0.0341,0.62831 0.12833,0.74676 0.0934,0.11748 0.12844,0.31575 0.14801,0.8384 0.019,0.50851 0.054,0.71277 0.13592,0.79439 0.0617,0.0615 0.1242,0.26711 0.14181,0.46673 0.0224,0.25337 0.0837,0.42002 0.21141,0.57466 0.099,0.11979 0.18723,0.22675 0.19618,0.23767 0.009,0.0109 0.0748,-0.009 0.14632,-0.0435 0.0715,-0.0349 0.27796,-0.0802 0.45873,-0.1007 0.18078,-0.0206 0.36683,-0.078 0.41347,-0.12765 0.0606,-0.0646 0.24784,-0.0916 0.657,-0.0948 0.56039,-0.004 1.10129,-0.0615 1.45231,-0.15318 0.0968,-0.0253 0.95224,-0.0568 1.90096,-0.07 1.67954,-0.0234 2.63408,-0.0984 2.71454,-0.21352 0.0218,-0.0311 0.19615,-0.0566 0.38748,-0.0566 0.28525,0 0.34746,0.0196 0.34557,0.1089 -0.003,0.15254 -0.55424,0.55234 -1.00296,0.72774 -0.20705,0.0809 -0.48341,0.25482 -0.61414,0.38642 l -0.23768,0.23927 -1.09398,0.0124 c -0.89561,0.0102 -1.10845,0.0299 -1.17379,0.10894 -0.0439,0.0531 -0.10344,0.0965 -0.13231,0.0965 -0.0289,0 -0.14756,0.0707 -0.26378,0.15715 -0.17357,0.1291 -0.25707,0.15007 -0.4678,0.11747 -0.14107,-0.0218 -0.32667,-0.0785 -0.41244,-0.12603 -0.0944,-0.0523 -0.35026,-0.0864 -0.64877,-0.0864 -0.42926,0 -0.5031,0.0169 -0.57231,0.13123 -0.0737,0.12176 -0.11679,0.12814 -0.59662,0.0884 -0.28444,-0.0236 -0.6909,-0.0237 -0.90324,-1.9e-4 -0.34065,0.0376 -0.39614,0.0641 -0.4716,0.22514 -0.10394,0.2218 -0.25975,0.30221 -0.58564,0.30221 -0.16886,0 -0.2789,-0.0402 -0.34766,-0.12696 -0.10027,-0.12654 -0.39763,-0.1958 -1.22749,-0.28592 -0.2563,-0.0278 -0.36963,-0.0184 -0.36963,0.0308 0,0.039 -0.0612,0.0709 -0.13607,0.0709 -0.0748,0 -0.15583,0.055 -0.17999,0.1223 -0.0769,0.21425 -0.81044,0.24762 -0.81044,0.0369 0,-0.0827 -0.29625,-0.15916 -0.61678,-0.15916 -0.17362,0 -0.44809,0.2039 -0.53074,0.39428 -0.023,0.0532 -0.15765,0.11588 -0.29903,0.13932 -0.31913,0.0529 -1.01205,-0.006 -1.11218,-0.0944 -0.16627,-0.14696 -0.80664,0.0287 -0.86876,0.23836 -0.0221,0.0744 -0.1199,0.1015 -0.37884,0.10488 -0.25324,0.003 -0.37506,0.036 -0.4436,0.11876 -0.084,0.10155 -0.23774,0.11753 -1.38669,0.14419 -1.09576,0.0254 -1.3248,0.0475 -1.50651,0.14547 -0.11787,0.0635 -0.31521,0.11562 -0.43854,0.11574 -0.12334,1.2e-4 -0.31343,0.0331 -0.42244,0.0732 -0.19545,0.072 -1.21093,0.13213 -2.31038,0.13681 -0.43972,0.002 -0.6366,-0.028 -0.89768,-0.13638 -0.18393,-0.0763 -0.33442,-0.17445 -0.33442,-0.21807 0,-0.0763 -0.37178,-0.22875 -0.55803,-0.22875 -0.0497,0 -0.24808,0.07 -0.44082,0.15558 -0.41137,0.18263 -1.03968,0.21566 -1.183747,0.0622 -0.09612,-0.10237 -0.84487,-0.13594 -0.84487,-0.0378 0,0.0305 -0.122609,0.0988 -0.272465,0.15183 -0.149856,0.053 -0.291434,0.14005 -0.314619,0.19345 -0.02321,0.0534 -0.08728,0.0971 -0.142436,0.0971 -0.05516,0 -0.118521,0.042 -0.140812,0.0933 -0.07062,0.16316 -0.819191,0.0997 -0.819191,-0.0695 0,-0.0474 -0.03536,-0.0861 -0.07862,-0.0861 -0.04395,0 -0.06238,-0.0549 -0.0418,-0.12447 0.03347,-0.11325 8.02e-4,-0.12488 -0.361419,-0.12917 -1.132972,-0.0134 -1.379907,0.0107 -1.678091,0.16435 -0.161785,0.0833 -0.384436,0.15152 -0.494779,0.15152 -0.110336,0 -0.263109,0.0378 -0.339488,0.0841 -0.07638,0.0462 -0.233927,0.10442 -0.350099,0.12931 -0.116168,0.0249 -0.25874,0.0814 -0.31682,0.12556 -0.05809,0.0442 -0.374418,0.0992 -0.702959,0.12229 -0.411081,0.0289 -0.615244,0.0702 -0.654752,0.13263 -0.03941,0.0623 -0.178778,0.0907 -0.44517,0.0907 -0.213271,0 -0.530776,0.0318 -0.705569,0.0707 -0.247099,0.055 -0.379345,0.0528 -0.594424,-0.01 -0.152144,-0.0444 -0.276618,-0.10313 -0.276618,-0.13055 0,-0.0274 -0.15978,-0.0918 -0.355065,-0.14306 -0.506949,-0.13306 -0.665267,-0.0567 -0.745153,0.35935 l -0.06148,0.32021 h -1.383177 c -1.218623,0 -1.399437,-0.0129 -1.519277,-0.1089 -0.07482,-0.0599 -0.162719,-0.1089 -0.195344,-0.1089 -0.03259,0 -0.109333,-0.0381 -0.170472,-0.0846 -0.208228,-0.15844 -0.75594,-0.23744 -1.082497,-0.15613 -0.174039,0.0433 -0.69416,0.0694 -1.262572,0.0634 -0.962329,-0.0103 -0.966802,-0.01 -1.008479,0.13713 -0.02301,0.0811 -0.03159,0.2423 -0.01904,0.35827 0.02012,0.18592 0.04906,0.21311 0.24485,0.22991 0.160262,0.0138 0.250174,-0.0164 0.323097,-0.10845 0.11149,-0.14068 0.50442,-0.23841 0.571704,-0.14218 0.02746,0.0392 0.189039,0.034 0.453527,-0.0148 0.431777,-0.0796 0.752004,-0.0311 0.70027,0.10629 -0.01611,0.0428 -0.08928,0.0881 -0.162551,0.10068 -0.07328,0.0126 -0.171041,0.0686 -0.217256,0.12447 -0.11953,0.14458 -2.486863,0.17414 -3.02736,0.0378 -0.319422,-0.0806 -0.385731,-0.0804 -0.563246,10e-4 -0.11066,0.051 -0.266151,0.0929 -0.345536,0.0931 -0.07939,1.9e-4 -0.17495,0.0275 -0.212369,0.0605 -0.03744,0.0331 -0.162559,0.064 -0.278106,0.0686 -0.23013,0.009 -1.641368,-0.17709 -1.737281,-0.22949 -0.03283,-0.0179 -0.167269,-10e-4 -0.298777,0.0372 -0.131509,0.0384 -0.45279,0.0784 -0.713959,0.089 -0.322207,0.0131 -0.49985,0.0494 -0.552594,0.1132 -0.04276,0.0517 -0.17717,0.11327 -0.298693,0.13686 -0.175314,0.034 -0.241215,0.0173 -0.318973,-0.0808 -0.05391,-0.068 -0.182926,-0.14252 -0.286711,-0.16555 -0.151656,-0.0337 -0.2305,-0.005 -0.401681,0.1464 -0.117146,0.10354 -0.21299,0.21841 -0.21299,0.25527 0,0.0368 -0.03127,0.067 -0.06946,0.067 -0.0382,0 -0.115791,0.098 -0.172424,0.21781 -0.05663,0.11979 -0.131637,0.2178 -0.166676,0.2178 -0.09135,0 -0.436306,-0.29286 -0.436306,-0.37041 0,-0.11634 -0.152918,-0.0688 -0.190823,0.0593 -0.02024,0.0684 -0.08065,0.12446 -0.134218,0.12446 -0.05357,0 -0.0974,0.0382 -0.0974,0.0849 0,0.0467 -0.06566,0.15875 -0.145923,0.24892 -0.106572,0.11976 -0.210533,0.16397 -0.385531,0.16397 -0.131785,0 -0.343344,0.0559 -0.470126,0.12423 -0.277817,0.14971 -0.840922,0.16594 -1.196877,0.0345 -0.212862,-0.0786 -0.293209,-0.0787 -0.624648,-8.1e-4 -0.209202,0.0492 -0.533783,0.0898 -0.721295,0.0902 -0.233345,3.5e-4 -0.397407,0.0401 -0.519936,0.1252 -0.148305,0.10312 -0.285622,0.12446 -0.800432,0.12446 -0.515848,0 -0.642815,0.0198 -0.747374,0.11667 -0.09985,0.0925 -0.278085,0.12592 -0.860046,0.16134 -0.405485,0.0247 -0.799441,0.0818 -0.880073,0.1277 -0.201181,0.11443 -2.304554,0.0716 -2.891804,-0.0589 -0.586347,-0.13028 -1.464551,-0.2164 -1.545402,-0.15154 -0.0368,0.0295 -0.115996,0.0545 -0.176015,0.0556 -0.06002,10e-4 -0.197681,0.13085 -0.305907,0.28837 l -0.196778,0.28641 -0.366472,-0.0536 c -0.567812,-0.083 -1.717369,-0.0442 -1.968421,0.0666 -0.118272,0.0521 -0.26365,0.0948 -0.323069,0.0948 -0.155327,0 -0.567542,-0.26073 -0.61431,-0.38857 -0.08371,-0.22878 -0.241427,-0.29595 -0.694878,-0.29595 -0.336506,0 -0.486185,0.0299 -0.622127,0.12445 -0.09846,0.0685 -0.23848,0.12447 -0.311163,0.12447 -0.07268,0 -0.312431,0.056 -0.532781,0.12446 -0.22035,0.0684 -0.447835,0.12446 -0.505526,0.12446 -0.05769,0 -0.138804,0.056 -0.180252,0.12445 -0.04145,0.0685 -0.105926,0.12447 -0.14329,0.12447 -0.03736,0 -0.131292,-0.056 -0.208741,-0.12447 -0.168928,-0.14931 -0.576361,-0.1662 -0.730145,-0.0303 -0.05861,0.0518 -0.200251,0.11074 -0.314772,0.13098 -0.167184,0.0296 -0.217007,0.0123 -0.252839,-0.0875 -0.02453,-0.0684 -0.106936,-0.13867 -0.183101,-0.15627 -0.07616,-0.0176 -0.13848,-0.0735 -0.13848,-0.12412 0,-0.10999 -0.255549,-0.15093 -0.730287,-0.117 -0.263266,0.0188 -0.351144,0.0519 -0.377843,0.1421 -0.01914,0.0647 -0.07523,0.11759 -0.124655,0.11759 -0.131743,0 -0.175335,0.14825 -0.175335,0.59627 0,0.45421 0.07352,0.4189 -0.832545,0.39986 -0.386327,-0.008 -0.450037,0.007 -0.481002,0.11127 -0.05058,0.17095 -0.492335,0.29106 -0.750414,0.20404 -0.10901,-0.0368 -0.585122,-0.0668 -1.058026,-0.0668 -0.681788,0 -0.893846,-0.021 -1.024125,-0.10172 -0.133155,-0.0824 -0.266525,-0.0942 -0.703595,-0.062 -0.663657,0.0489 -1.481177,0.19602 -1.581314,0.28452 -0.09236,0.0816 -0.820801,0.0879 -0.820801,0.007 0,-0.0324 -0.07657,-0.0954 -0.17015,-0.14002 -0.09358,-0.0447 -0.31771,-0.17264 -0.498056,-0.28444 -0.312538,-0.19372 -0.361481,-0.20393 -1.044354,-0.2178 -0.587298,-0.0119 -0.747828,0.005 -0.890528,0.0943 -0.213472,0.13355 -0.465737,0.14109 -0.520238,0.0155 -0.05868,-0.13517 -0.937289,-0.13098 -1.107628,0.005 -0.06781,0.0542 -0.251188,0.11377 -0.407508,0.13231 -0.15632,0.0185 -0.337944,0.0862 -0.40361,0.1503 -0.07138,0.0697 -0.214094,0.11661 -0.354901,0.11661 -0.129529,0 -0.235509,0.028 -0.235509,0.0622 0,0.0342 -0.07448,0.0622 -0.165509,0.0622 -0.235602,0 -0.634107,0.12961 -0.700463,0.22782 -0.03203,0.0474 -0.183799,0.0849 -0.352031,0.0869 -0.162649,0.002 -0.422457,0.0247 -0.577351,0.0505 -0.352163,0.0587 -0.668856,-0.0267 -0.668856,-0.18021 0,-0.20895 -0.209323,-0.32612 -0.517402,-0.28959 -0.154531,0.0183 -0.308846,0.0773 -0.34292,0.13116 -0.03408,0.0538 -0.106955,0.0978 -0.161957,0.0978 -0.055,0 -0.170275,0.084 -0.256163,0.18669 -0.08589,0.10268 -0.176956,0.18669 -0.202372,0.18669 -0.02542,0 -0.227239,-0.14002 -0.448495,-0.31115 z m 16.638125,-1.00177 c 0.191091,-0.22845 0.126202,-0.32325 -0.201261,-0.29404 -0.281898,0.0251 -0.533665,0.32633 -0.355944,0.4258 0.196249,0.10985 0.394283,0.063 0.557205,-0.13176 z m 1.91379,-1.90634 c 0.195656,-0.088 0.504539,-0.11368 1.68296,-0.14002 0.793829,-0.0178 1.484739,-0.0559 1.535354,-0.0848 0.126057,-0.072 0.348099,-0.0981 1.218183,-0.14327 l 0.746969,-0.0388 0.08194,-0.31375 c 0.05586,-0.21391 0.05901,-0.33401 0.0099,-0.37742 -0.03961,-0.035 -0.07204,-0.10975 -0.07204,-0.16605 0,-0.0563 -0.06217,-0.1521 -0.138163,-0.21288 -0.191725,-0.15336 -0.310253,-0.49196 -0.22245,-0.63548 0.111197,-0.18175 0.207162,-0.6284 0.147045,-0.68438 -0.0303,-0.0282 -0.06595,-0.29477 -0.07919,-0.59231 -0.02069,-0.4652 -0.04626,-0.55924 -0.182486,-0.67139 -0.08713,-0.0717 -0.158414,-0.15511 -0.158414,-0.18528 0,-0.0302 -0.102967,-0.0746 -0.22882,-0.0987 -0.125848,-0.0241 -0.244657,-0.0628 -0.264023,-0.086 -0.01936,-0.0231 -0.154012,-0.0909 -0.299222,-0.15067 -0.145214,-0.0597 -0.264023,-0.13527 -0.264023,-0.16789 0,-0.0326 -0.0451,-0.0593 -0.10021,-0.0593 -0.05511,0 -0.194338,-0.07 -0.309388,-0.15557 -0.115049,-0.0856 -0.243098,-0.15557 -0.284546,-0.15557 -0.04145,0 -0.109281,-0.056 -0.15073,-0.12447 -0.04145,-0.0684 -0.108191,-0.12445 -0.148316,-0.12445 -0.04013,0 -0.12204,-0.0434 -0.182024,-0.0964 -0.05999,-0.053 -0.200296,-0.11253 -0.311801,-0.13224 -0.111502,-0.0197 -0.202729,-0.061 -0.202729,-0.0918 0,-0.0308 -0.07921,-0.0826 -0.176015,-0.11514 -0.09681,-0.0326 -0.176016,-0.0834 -0.176016,-0.11312 0,-0.0297 -0.110892,-0.10676 -0.246421,-0.17127 -0.135533,-0.0645 -0.246422,-0.13893 -0.246422,-0.16538 0,-0.0265 -0.06337,-0.0481 -0.140812,-0.0481 -0.07744,0 -0.140812,0.039 -0.140812,0.0867 0,0.0477 -0.04407,0.10163 -0.09795,0.1199 -0.06351,0.0216 -0.115426,0.18707 -0.147663,0.47079 -0.02734,0.24066 -0.09212,0.46867 -0.143951,0.50669 -0.05183,0.038 -0.114146,0.14927 -0.138486,0.24722 -0.02434,0.0979 -0.08819,0.21032 -0.141887,0.24971 -0.0537,0.0394 -0.117377,0.20234 -0.141508,0.36212 -0.02413,0.15977 -0.08758,0.37451 -0.140991,0.4772 -0.05341,0.10267 -0.116179,0.29317 -0.139476,0.42332 -0.02329,0.13015 -0.08814,0.25216 -0.144083,0.27113 -0.05595,0.019 -0.101725,0.0725 -0.101725,0.119 0,0.0465 -0.06336,0.11448 -0.140812,0.15111 -0.07745,0.0366 -0.140812,0.10574 -0.140812,0.15357 0,0.0478 -0.06044,0.10392 -0.134308,0.12464 -0.07387,0.0207 -0.152082,0.0786 -0.173805,0.12865 -0.02173,0.05 -0.08432,0.091 -0.139104,0.091 -0.05479,0 -0.116179,0.056 -0.136431,0.12446 -0.02025,0.0685 -0.08588,0.12446 -0.145833,0.12446 -0.06842,0 -0.125883,0.0795 -0.154324,0.2135 -0.02493,0.11742 -0.08798,0.22796 -0.140118,0.24564 -0.05214,0.0177 -0.11592,0.13165 -0.141728,0.25324 -0.02701,0.12724 -0.08842,0.22107 -0.144696,0.22107 -0.05377,0 -0.09777,0.0306 -0.09777,0.068 0,0.0374 -0.06336,0.13918 -0.140812,0.2262 -0.148137,0.16645 -0.191547,0.45259 -0.06866,0.45259 0.03968,0 0.10488,0.0761 0.144884,0.1691 0.138903,0.32291 0.159994,0.32874 1.188892,0.32874 0.777128,0 1.013149,-0.0211 1.205883,-0.10776 z m 25.72118,-2.5379 c 0.107425,-0.095 0.178152,-0.25372 0.211243,-0.47425 0.02738,-0.18234 0.0873,-0.35201 0.133184,-0.37704 0.107325,-0.0586 0.164579,-1.77688 0.06222,-1.86736 -0.122292,-0.10809 -0.375176,0.0167 -0.479013,0.23632 -0.05507,0.1165 -0.131381,0.21181 -0.169582,0.21181 -0.0382,0 -0.06946,0.0301 -0.06946,0.067 0,0.0881 -0.389447,0.43082 -0.489636,0.43082 -0.04292,0 -0.09552,0.0403 -0.11691,0.0895 -0.02141,0.0493 -0.134499,0.10811 -0.25138,0.1308 -0.234304,0.0455 -0.23519,0.0461 -0.937431,0.61528 -0.791428,0.64152 -0.809667,0.66137 -0.809667,0.88124 0,0.2666 0.03644,0.27209 1.535888,0.23154 1.151884,-0.0311 1.227963,-0.0408 1.380552,-0.17572 z m 6.26483,-0.37722 c 0.151198,-0.017 0.309616,-0.0509 0.35203,-0.0754 0.04242,-0.0245 0.613501,-0.0735 1.269071,-0.10904 0.814465,-0.0442 1.200949,-0.0885 1.220371,-0.14002 0.0188,-0.0499 0.203478,-0.0754 0.546445,-0.0754 0.302578,0 0.538044,-0.0286 0.56616,-0.0688 0.08515,-0.12177 0.03868,-0.6291 -0.06716,-0.73292 -0.05638,-0.0553 -0.124887,-0.17984 -0.152253,-0.27674 -0.02738,-0.0969 -0.09008,-0.18983 -0.139377,-0.20655 -0.0493,-0.0167 -0.109422,-0.12366 -0.133617,-0.23764 -0.02417,-0.11398 -0.08863,-0.24 -0.143206,-0.28003 -0.05457,-0.04 -0.121222,-0.16186 -0.14812,-0.27073 -0.0269,-0.10887 -0.108146,-0.26473 -0.180545,-0.34636 -0.0724,-0.0816 -0.131632,-0.20064 -0.131632,-0.26447 0,-0.0638 -0.03026,-0.11608 -0.06722,-0.11608 -0.03696,0 -0.08763,-0.0962 -0.112584,-0.21373 -0.02493,-0.11756 -0.105589,-0.26191 -0.179202,-0.32079 -0.07361,-0.0589 -0.134543,-0.16573 -0.135405,-0.23743 -8.02e-4,-0.0717 -0.06352,-0.20038 -0.139249,-0.28595 -0.07572,-0.0856 -0.138383,-0.20081 -0.139245,-0.25609 -8.02e-4,-0.0553 -0.06493,-0.17171 -0.142376,-0.25874 -0.07744,-0.087 -0.140812,-0.19903 -0.140812,-0.24891 0,-0.0499 -0.06337,-0.1619 -0.140816,-0.24892 -0.07744,-0.087 -0.14151,-0.19582 -0.142372,-0.24176 -8.02e-4,-0.0459 -0.06352,-0.15354 -0.139249,-0.23911 -0.07573,-0.0856 -0.139089,-0.19758 -0.140808,-0.24891 -0.0016,-0.0513 -0.06509,-0.16336 -0.140813,-0.24893 -0.07573,-0.0856 -0.138391,-0.19175 -0.139249,-0.23596 -8.01e-4,-0.0442 -0.06493,-0.14051 -0.142379,-0.21398 -0.07744,-0.0735 -0.140813,-0.1921 -0.140813,-0.26361 0,-0.0715 -0.06336,-0.17796 -0.140808,-0.23657 -0.07745,-0.0586 -0.140816,-0.16373 -0.140816,-0.23359 0,-0.0699 -0.04462,-0.14216 -0.09916,-0.16066 -0.05454,-0.0185 -0.139698,-0.12263 -0.189235,-0.2314 -0.04954,-0.10878 -0.177719,-0.2788 -0.284848,-0.37782 -0.182461,-0.16865 -0.221003,-0.17793 -0.60948,-0.14679 -0.499445,0.04 -0.788642,-8e-4 -0.788642,-0.11184 0,-0.0451 -0.05995,-0.0987 -0.133212,-0.11927 -0.07327,-0.0206 -0.149507,-0.0924 -0.169421,-0.15977 -0.05454,-0.18435 -0.236328,-0.14716 -0.36107,0.0739 -0.136588,0.24201 -0.138223,0.55821 -0.0062,1.20393 0.05597,0.27381 0.102875,0.82488 0.104222,1.2246 0.002,0.58665 0.02457,0.7463 0.117178,0.82815 0.06309,0.0558 0.131051,0.23279 0.151026,0.39339 0.01996,0.16059 0.09507,0.35877 0.166908,0.44039 0.178088,0.20238 0.172877,0.6274 -0.01022,0.83314 -0.07745,0.087 -0.140933,0.23782 -0.141077,0.3351 -1.36e-4,0.0973 -0.05822,0.26088 -0.129067,0.36356 -0.07235,0.10487 -0.149459,0.37762 -0.175923,0.6223 -0.02594,0.23959 -0.09457,0.57308 -0.152554,0.7411 -0.10815,0.31333 -0.151956,1.65513 -0.05679,1.73925 0.0492,0.0435 1.866333,-8e-4 2.373639,-0.0581 z m 12.412284,-0.29557 c 0.03095,-0.0454 0.107778,-0.0992 0.170697,-0.11952 0.124409,-0.0403 0.194823,-0.31925 0.149486,-0.59226 -0.05203,-0.31336 -0.617793,-0.43371 -0.907595,-0.19307 -0.151067,0.12544 -0.154249,0.14488 -0.05734,0.34987 0.05643,0.11938 0.102603,0.26043 0.102603,0.31345 0,0.24013 0.416456,0.42566 0.542152,0.24153 z m -0.930668,-1.51214 c 0.06291,-0.0556 0.104779,-0.16062 0.09304,-0.23337 -0.01712,-0.10607 -0.07014,-0.13225 -0.267771,-0.13225 -0.233931,0 -0.247528,0.0118 -0.268272,0.23335 -0.01988,0.21234 -0.0061,0.23337 0.153383,0.23337 0.09638,0 0.226711,-0.0455 0.289622,-0.1011 z m 19.352752,-0.9556 c 0.0332,-0.0284 0.0569,-0.40535 0.0528,-0.83764 -0.006,-0.6129 -0.0327,-0.82002 -0.12199,-0.94053 -0.0864,-0.11655 -0.12313,-0.3645 -0.14944,-1.00901 -0.0248,-0.60708 -0.0635,-0.88342 -0.13354,-0.95439 -0.0543,-0.0549 -0.11856,-0.28824 -0.14287,-0.51843 -0.0508,-0.48095 -0.14523,-0.59516 -0.49205,-0.59516 -0.18877,0 -0.25678,0.0297 -0.28481,0.12446 -0.0203,0.0684 -0.0836,0.12447 -0.14082,0.12447 -0.0572,0 -0.12055,0.056 -0.14081,0.12445 -0.0202,0.0685 -0.0816,0.12446 -0.13643,0.12446 -0.0548,0 -0.1196,0.049 -0.14404,0.10891 -0.0245,0.0599 -0.0875,0.1509 -0.14023,0.20225 -0.20405,0.19886 -0.51497,0.57975 -0.51497,0.63085 0,0.0295 -0.0475,0.0537 -0.10561,0.0537 -0.0581,0 -0.10561,0.0386 -0.10561,0.0858 0,0.0472 -0.0952,0.12064 -0.21149,0.16322 -0.29371,0.10753 -0.63338,0.53252 -0.63338,0.79245 0,0.30879 -0.42958,0.69697 -0.8229,0.7436 -0.17255,0.0205 -0.38978,0.10525 -0.52473,0.20482 l -0.23026,0.16991 0.0849,0.32503 c 0.0467,0.17876 0.0849,0.39266 0.0849,0.47532 0,0.0829 0.0631,0.18516 0.14081,0.22803 0.0774,0.0427 0.14081,0.11066 0.14081,0.15092 0,0.0403 0.0315,0.0825 0.07,0.0939 0.1523,0.0451 4.54541,-0.0231 4.60178,-0.0714 z m -56.415503,-2.06258 c 0.05659,-0.0935 0.05861,-0.17101 0.0069,-0.26448 -0.04025,-0.0727 -0.08552,-0.38044 -0.10059,-0.6838 -0.02157,-0.43391 -0.05252,-0.56399 -0.14521,-0.60984 -0.08634,-0.0427 -0.118088,-0.1447 -0.118849,-0.38189 -3.89e-4,-0.17798 -0.04685,-0.39362 -0.102848,-0.47919 -0.14177,-0.21664 -0.160121,-0.2565 -0.209474,-0.45495 -0.03812,-0.15321 -0.0716,-0.17252 -0.269904,-0.15557 l -0.226407,0.0193 -0.0202,0.57397 c -0.01659,0.47087 0.0055,0.62395 0.123215,0.85225 0.09769,0.18954 0.143426,0.40835 0.143426,0.68619 0,0.32493 0.02866,0.43323 0.140812,0.53237 0.07745,0.0685 0.140812,0.16647 0.140812,0.21781 0,0.0513 0.05998,0.0933 0.133281,0.0933 0.0733,0 0.151515,0.042 0.173806,0.0933 0.05882,0.13547 0.238469,0.11438 0.331279,-0.0389 z m -2.891359,-3.12975 c 0,-0.13495 -0.07814,-0.28513 -0.148344,-0.28513 -0.03459,0 -0.06287,0.084 -0.06287,0.18669 0,0.12447 0.0352,0.18669 0.105609,0.18669 0.05809,0 0.105609,-0.0397 0.105609,-0.0883 z m 54.406232,-0.6355 c 0.0871,-0.0207 0.15841,-0.0714 0.15841,-0.11277 0,-0.0414 0.0792,-0.141 0.17601,-0.22139 0.0968,-0.0804 0.17602,-0.18229 0.17602,-0.22646 0,-0.0442 0.0634,-0.11028 0.14081,-0.14692 0.0774,-0.0366 0.14082,-0.0962 0.14082,-0.13239 0,-0.0362 0.0634,-0.13698 0.14081,-0.224 0.0774,-0.087 0.14081,-0.20948 0.14081,-0.27211 0,-0.0626 0.0591,-0.14185 0.13137,-0.17602 0.0893,-0.0423 0.14338,-0.15637 0.16894,-0.35684 0.0524,-0.41107 -0.0299,-0.56562 -0.32745,-0.61497 -0.1346,-0.0223 -0.26177,-0.0798 -0.28259,-0.12781 -0.0507,-0.11665 -0.28723,-0.11076 -0.4245,0.0106 -0.0609,0.0538 -0.11064,0.18854 -0.11064,0.29946 0,0.11092 -0.0634,0.31759 -0.14081,0.45928 -0.0774,0.14168 -0.14081,0.37488 -0.14081,0.51822 0,0.17499 -0.0399,0.28642 -0.1215,0.33914 -0.0916,0.0592 -0.12813,0.19475 -0.14851,0.55138 -0.0287,0.50238 -0.0195,0.51471 0.32281,0.43363 z m -28.074404,-0.53151 c 0,-0.0401 0.05279,-0.12444 0.117302,-0.18745 0.157528,-0.15385 0.218775,-1.03141 0.08237,-1.18022 -0.266324,-0.29056 -0.669981,-0.11926 -0.767164,0.32555 -0.09352,0.42802 -0.0094,0.84761 0.199124,0.99255 0.197033,0.13699 0.36837,0.16004 0.36837,0.0496 z m -0.739698,-3.72315 c 0.112685,0 0.17064,-0.29594 0.182802,-0.93345 0.01668,-0.87288 0.0024,-0.99568 -0.116115,-0.99568 -0.06037,0 -0.09154,-0.026 -0.06926,-0.0579 0.02229,-0.0319 0.0083,-0.0755 -0.03103,-0.097 -0.03936,-0.0215 -0.07156,-0.0786 -0.07156,-0.12695 0,-0.0483 -0.100077,-0.21334 -0.222394,-0.36673 l -0.222395,-0.27887 -0.163624,0.13704 c -0.139586,0.11691 -0.163794,0.19903 -0.164836,0.55904 -8.02e-4,0.31843 0.02473,0.4308 0.104395,0.45783 0.05808,0.0197 0.105613,0.0888 0.105613,0.15362 0,0.11482 0.03183,0.12944 0.310606,0.14258 0.08244,0.004 0.161076,0.0762 0.202929,0.18661 0.06115,0.16133 0.04415,0.19894 -0.161737,0.35783 -0.126538,0.0976 -0.253865,0.17755 -0.282943,0.17755 -0.0291,0 -0.0674,0.0875 -0.08516,0.19441 -0.02541,0.15305 0.0111,0.23364 0.171658,0.3788 0.123584,0.11175 0.246386,0.17 0.311673,0.14786 0.05925,-0.0201 0.149888,-0.0366 0.201397,-0.0366 z m 30.669992,-5.0873 c 0.0945,-0.21676 0.0381,-0.6144 -0.10738,-0.75649 -0.0614,-0.0599 -0.11157,-0.15378 -0.11157,-0.20853 0,-0.1335 -0.19107,-0.29514 -0.34886,-0.29514 -0.1933,0 -0.23132,0.30108 -0.0677,0.5363 0.0742,0.10672 0.13496,0.27797 0.13496,0.38055 0,0.18486 0.22991,0.51444 0.35887,0.51444 0.0369,0 0.10064,-0.077 0.1417,-0.17113 z m -0.79703,-4.03144 c 0.0198,-0.42481 0.014,-0.44179 -0.19512,-0.57848 -0.2174,-0.14206 -0.3533,-0.13535 -0.3533,0.0175 0,0.0457 -0.0475,0.0991 -0.10561,0.11884 -0.072,0.0244 -0.10561,0.12397 -0.10561,0.31252 0,0.36208 0.22192,0.60737 0.52805,0.58366 0.21073,-0.0163 0.21127,-0.0174 0.23159,-0.45401 z m 2.48561,-0.94666 c 0.0949,-0.22058 0.0141,-1.44771 -0.11905,-1.80715 -0.0543,-0.14666 -0.0987,-0.36026 -0.0987,-0.47467 0,-0.11498 -0.0505,-0.24506 -0.11295,-0.29086 -0.0621,-0.0456 -0.14076,-0.14751 -0.17475,-0.22654 -0.034,-0.079 -0.14945,-0.17314 -0.25656,-0.20914 -0.10711,-0.036 -0.2451,-0.10571 -0.30662,-0.15493 -0.11542,-0.0923 -0.55725,-0.061 -0.55725,0.0395 0,0.0277 -0.0671,0.0691 -0.14906,0.0921 -0.13268,0.0372 -0.14527,0.0767 -0.11454,0.35939 0.019,0.17467 0.0723,0.32869 0.11842,0.34229 0.0461,0.0136 0.11272,0.0918 0.14799,0.17376 0.0352,0.082 0.11242,0.14905 0.17146,0.14905 0.0604,0 0.10736,0.0544 0.10736,0.12445 0,0.0685 0.0441,0.12447 0.0981,0.12447 0.10562,0 0.18355,0.13016 0.18355,0.30659 0,0.0603 0.0592,0.15709 0.1316,0.21499 0.0724,0.0579 0.15123,0.23195 0.17525,0.3868 0.024,0.15484 0.0915,0.32384 0.15003,0.37555 0.0585,0.0517 0.1068,0.15503 0.10733,0.22959 0.002,0.28598 0.0817,0.41561 0.25542,0.41561 0.1201,0 0.19097,-0.0498 0.24303,-0.17083 z m -3.91247,-2.96945 c -0.0269,-0.24087 -0.0789,-0.47 -0.11567,-0.50915 -0.0368,-0.0392 -0.086,-0.21418 -0.10943,-0.38894 -0.0234,-0.17476 -0.0703,-0.31774 -0.10431,-0.31774 -0.034,0 -0.11343,-0.0958 -0.17663,-0.21296 -0.1226,-0.22724 -0.34498,-0.32263 -0.49522,-0.21243 -0.0562,0.0412 -0.0917,0.20813 -0.0917,0.43082 0,0.29127 0.0261,0.37594 0.13147,0.42576 0.10062,0.0476 0.14289,0.16468 0.18016,0.49899 0.0288,0.25796 0.087,0.45634 0.1423,0.48451 0.0515,0.0262 0.10524,0.1025 0.11945,0.16944 0.0303,0.14278 0.3347,0.22985 0.47273,0.13522 0.0733,-0.0502 0.0842,-0.16803 0.0468,-0.50352 z m 3.69603,-3.22473 c 0.19145,-0.1357 0.26014,-0.36515 0.1977,-0.66048 -0.0675,-0.3195 -0.005,-0.38935 0.32691,-0.36446 0.1517,0.0114 0.21595,-0.0142 0.23398,-0.0932 0.0209,-0.0917 -0.0288,-0.1089 -0.31599,-0.1089 -0.24842,0 -0.41176,-0.0426 -0.60233,-0.15705 -0.19061,-0.11448 -0.3114,-0.14597 -0.44571,-0.11618 -0.16517,0.0366 -0.17889,0.0609 -0.13266,0.23483 0.0284,0.10669 0.0869,0.41329 0.13013,0.68134 0.0675,0.41869 0.10338,0.4995 0.25459,0.57342 0.21457,0.10491 0.22023,0.10508 0.35338,0.0107 z m 2.40828,-2.3677 c 0.0909,-0.12629 0.0582,-0.5631 -0.0567,-0.75738 -0.0607,-0.10268 -0.12863,-0.32219 -0.15092,-0.48781 -0.0224,-0.16701 -0.0829,-0.31549 -0.13561,-0.33337 -0.0523,-0.0178 -0.0951,-0.0818 -0.0951,-0.14243 0,-0.14116 -0.18045,-0.28199 -0.24431,-0.19067 -0.0251,0.0359 -0.10518,0.0653 -0.17796,0.0653 -0.16837,0 -0.23683,0.3552 -0.20136,1.0447 0.023,0.447 0.0436,0.50578 0.23708,0.6768 0.11654,0.10301 0.25911,0.20424 0.31682,0.22496 0.14018,0.0503 0.44265,-0.009 0.50799,-0.10005 z m -2.128,-0.45141 c 0,-0.1099 -0.15157,-0.0908 -0.19508,0.0247 -0.0153,0.0406 0.0223,0.0739 0.0836,0.0739 0.0613,0 0.11147,-0.0443 0.11147,-0.0985 z"
         style="fill:#73a59e;fill-opacity:1;stroke-width:0.06619193" />
      <g
         id="flowRoot5129"
         style="font-style:normal;font-weight:normal;font-size:96px;line-height:120px;font-family:sans-serif;text-align:center;letter-spacing:0.01px;word-spacing:0px;text-anchor:middle;fill:#000000;fill-opacity:1;stroke:none"
         transform="matrix(0.30934158,0,0,0.30934158,-116.34105,77.154962)"
         aria-label="cordee">
        <path
           inkscape:connector-curvature="0"
           id="path5148"
           style="font-style:normal;font-variant:normal;font-weight:normal;font-stretch:normal;font-size:96px;line-height:120px;font-family:Chalkboard;-inkscape-font-specification:Chalkboard;text-align:center;letter-spacing:5px;word-spacing:0px;text-anchor:middle;fill:#73a59e;fill-opacity:1"
           d="m 508.23919,668.74351 q 1.80332,-1.48509 3.50055,-1.37901 1.80332,0.10608 2.86409,1.16685 1.06078,1.06077 1.16685,2.86409 0.10608,1.69724 -1.379,3.50055 -3.50055,3.81879 -8.27403,5.40995 -4.66741,1.59116 -9.33481,0.84862 -4.56133,-0.63647 -8.48619,-3.60663 -3.92486,-2.97017 -5.83425,-8.06188 -1.16685,-2.86409 -1.69724,-6.04641 -0.53039,-3.18232 -0.31823,-6.25856 0.31823,-5.09172 2.3337,-10.18343 2.12155,-5.19779 5.6221,-9.01657 3.60663,-3.81879 8.38011,-5.51603 4.87956,-1.80331 10.60773,0 2.86409,0.9547 5.19779,2.3337 2.3337,1.37901 4.45525,3.50056 1.16685,1.69723 1.16685,3.28839 0,1.59117 -0.95469,2.65194 -0.84862,0.95469 -2.43978,1.27293 -1.48509,0.31823 -3.39448,-0.63647 -3.50055,-3.50055 -6.78895,-4.13701 -3.2884,-0.74255 -6.15248,0.53038 -2.75802,1.27293 -4.98564,4.13702 -2.12155,2.75801 -3.2884,6.36464 -1.16685,3.50055 -1.16685,7.42541 0,3.81879 1.48508,7.10719 1.27293,2.97016 3.39448,4.56132 2.22762,1.59116 4.6674,1.9094 2.43978,0.21215 4.98564,-0.74255 2.65193,-1.06077 4.6674,-3.28839 z" />
        <path
           inkscape:connector-curvature="0"
           id="path5150"
           style="font-style:normal;font-variant:normal;font-weight:normal;font-stretch:normal;font-size:96px;line-height:120px;font-family:Chalkboard;-inkscape-font-specification:Chalkboard;text-align:center;letter-spacing:5px;word-spacing:0px;text-anchor:middle;fill:#73a59e;fill-opacity:1"
           d="m 528.21184,654.21091 q 1.16685,-3.39448 2.86409,-6.5768 1.69724,-3.28839 4.03094,-5.94033 2.3337,-2.65193 5.30387,-4.56132 3.07624,-1.9094 6.78895,-2.75801 6.15249,-1.37901 10.71381,0.95469 4.6674,2.3337 7.42542,6.68287 2.75801,4.34918 3.60663,9.97127 0.95469,5.51603 -0.42431,10.60774 -1.59116,6.25856 -5.6221,11.66851 -4.03094,5.40994 -10.18343,7.84972 -4.56132,1.80332 -8.80442,1.27293 -4.13702,-0.42431 -7.53149,-2.65193 -3.2884,-2.22763 -5.6221,-5.83426 -2.3337,-3.60663 -3.18232,-8.16795 -0.53039,-2.86409 -0.42431,-5.6221 0.21216,-2.75801 0.74254,-5.51603 z m 8.27404,2.43978 q -0.42431,2.22762 -0.63647,4.13701 -0.10607,1.80332 0.21216,4.13702 0.31823,2.86409 1.80331,5.19779 1.48509,2.22763 3.60663,3.50055 2.12155,1.16685 4.66741,1.16685 2.65193,-0.10607 5.30386,-1.69723 3.50056,-2.12155 5.51603,-5.51602 2.12154,-3.39448 3.18232,-7.31934 0.84861,-3.18232 0.31823,-6.78895 -0.42431,-3.60663 -2.12155,-6.36464 -1.69724,-2.75801 -4.56133,-3.92486 -2.86408,-1.27293 -6.78895,0.31823 -4.24309,1.80331 -6.68287,5.40994 -2.43978,3.60663 -3.81878,7.74365 z" />
        <path
           inkscape:connector-curvature="0"
           id="path5152"
           style="font-style:normal;font-variant:normal;font-weight:normal;font-stretch:normal;font-size:96px;line-height:120px;font-family:Chalkboard;-inkscape-font-specification:Chalkboard;text-align:center;letter-spacing:5px;word-spacing:0px;text-anchor:middle;fill:#73a59e;fill-opacity:1"
           d="m 585.29955,643.28494 q -1.59116,-0.84862 -2.3337,-2.01547 -0.74254,-1.16685 -0.74254,-2.3337 0,-1.59116 1.16685,-2.75801 1.16685,-1.27293 3.18232,-1.27293 1.48508,0 3.71271,1.06078 2.22762,1.06077 3.50055,2.3337 3.2884,-2.75801 6.78895,-4.56133 3.50055,-1.80331 7.10718,-1.80331 1.06078,0 3.07624,0.53038 2.01547,0.53039 3.92487,1.59116 2.01547,1.06078 3.50055,2.75801 1.48508,1.69724 1.48508,3.92487 0,1.80331 -1.16685,2.97016 -1.16685,1.06078 -2.86409,1.06078 -1.16685,0 -2.12154,-0.63647 -0.84862,-0.74254 -1.80332,-1.48508 -0.84862,-0.84862 -1.90939,-1.48508 -0.9547,-0.63647 -2.22763,-0.63647 -1.48508,0 -3.28839,0.9547 -1.69724,0.84862 -3.50056,2.12154 -1.69723,1.27293 -3.28839,2.75802 -1.59116,1.48508 -2.75801,2.65193 v 28.21657 q -0.10608,2.43978 -1.48509,3.60663 -1.27293,1.27293 -2.86409,1.27293 -1.48508,0 -2.75801,-1.16685 -1.27293,-1.06077 -1.59116,-3.39447 v -28.95912 q 0,-0.21215 -0.10607,-0.42431 0,-0.31823 0,-0.53039 0,-0.21215 0,-0.42431 0.10607,-0.31823 0.10607,-0.53038 v -3.07625 q -0.42431,-0.21215 -0.74254,-0.31823 z" />
        <path
           inkscape:connector-curvature="0"
           id="path5154"
           style="font-style:normal;font-variant:normal;font-weight:normal;font-stretch:normal;font-size:96px;line-height:120px;font-family:Chalkboard;-inkscape-font-specification:Chalkboard;text-align:center;letter-spacing:5px;word-spacing:0px;text-anchor:middle;fill:#73a59e;fill-opacity:1"
           d="m 668.38564,672.66837 q 1.379,1.90939 1.06077,3.71271 -0.21216,1.69723 -1.37901,2.75801 -1.06077,0.95469 -2.86409,0.95469 -1.69723,-0.10608 -3.39447,-1.80331 -0.53039,-0.53039 -0.9547,-1.06078 -0.42431,-0.63646 -0.63646,-1.16685 -3.18232,2.75801 -7.42541,4.2431 -4.13702,1.59116 -8.48619,1.59116 -4.2431,0 -8.16796,-1.69724 -3.92486,-1.80332 -6.57679,-5.51602 -2.01547,-2.86409 -2.97017,-6.36464 -0.84862,-3.60663 -0.84862,-7.21326 0,-3.71271 0.84862,-7.21326 0.9547,-3.60663 2.3337,-6.68288 1.27293,-2.75801 3.60663,-4.98563 2.43978,-2.22763 5.09171,-3.60663 2.43978,-1.37901 5.40995,-2.22763 3.07624,-0.95469 5.83425,-1.06077 2.54586,0 5.09172,0.10608 2.54585,0.10608 4.98563,0.84862 -0.10608,-7.63757 -0.21215,-12.83536 0,-5.30387 0,-7.10718 0.42431,-2.01547 1.59116,-3.07625 1.27293,-1.06077 2.54585,-1.06077 1.37901,-0.10608 2.65194,0.84862 1.27293,0.95469 1.90939,2.97016 v 55.47846 q 0.21215,0.31823 0.42431,0.63646 0.31823,0.21216 0.53039,0.53039 z m -9.33481,-7.63757 v -1.48508 q 0,-3.92487 0,-8.59227 0,-4.77348 -0.10608,-9.01657 l -0.63646,-0.31824 q -0.31823,-0.21215 -0.63647,-0.42431 -0.21215,-0.21215 -0.53038,-0.4243 -3.18232,-0.9547 -6.68288,-0.84862 -3.50055,0.10607 -6.57679,1.379 -3.07625,1.16685 -5.51602,3.50055 -2.33371,2.33371 -3.2884,5.94034 -0.84862,3.28839 -0.63647,5.72817 0.21216,2.43978 0.63647,5.72818 0.42431,0.84862 0.74254,1.69724 0.42431,0.84862 0.84862,1.69723 l 2.12155,2.12155 q 1.27292,0.42431 2.43977,1.06078 4.2431,0.4243 7.74365,-0.42431 3.60663,-0.84862 6.89503,-3.71271 0.10608,-0.21216 0.42431,-0.53039 0.42431,-0.42431 0.84862,-0.84862 0.42431,-0.42431 0.74254,-0.74254 0.42431,-0.42431 0.53038,-0.53039 z" />
        <path
           inkscape:connector-curvature="0"
           id="path5156"
           style="font-style:normal;font-variant:normal;font-weight:normal;font-stretch:normal;font-size:96px;line-height:120px;font-family:Chalkboard;-inkscape-font-specification:Chalkboard;text-align:center;letter-spacing:5px;word-spacing:0px;text-anchor:middle;fill:#73a59e;fill-opacity:1"
           d="m 721.09465,667.78881 q 2.22762,-0.84862 3.81878,-0.21215 1.59116,0.63646 2.22763,2.01546 0.74254,1.37901 0.21215,3.07625 -0.42431,1.69724 -2.43978,2.86409 -3.50055,2.01547 -7.53149,3.7127 -4.03094,1.69724 -8.16796,2.33371 -4.13701,0.63646 -8.16795,-0.10608 -4.03094,-0.63647 -7.74365,-3.18232 -4.45525,-3.07625 -6.78895,-8.27404 -2.3337,-5.30386 -2.43978,-10.92596 -0.10607,-5.72818 2.01547,-10.92597 2.22763,-5.30387 6.89503,-8.48619 4.87956,-3.2884 10.60774,-4.87956 5.72817,-1.69723 11.56243,-0.4243 2.86408,0.63646 5.19779,2.75801 2.3337,2.01547 3.7127,4.77348 1.48509,2.65193 1.59116,5.72817 0.10608,2.97017 -1.48508,5.6221 -1.80331,2.97017 -5.19779,5.09172 -3.39447,2.01547 -7.42541,3.50055 -3.92487,1.379 -7.9558,2.3337 -3.92487,0.9547 -6.89503,1.80331 -1.27293,0.31824 -2.43978,0.10608 1.59116,3.39448 4.6674,5.6221 3.18232,2.12155 7.84973,1.80332 3.7127,-0.21216 7.42541,-2.01547 3.81878,-1.9094 6.89503,-3.71271 z m -20.68509,-22.59448 q -3.92486,2.01547 -5.83425,5.72818 -1.90939,3.60663 -1.90939,7.63757 0.74254,-0.53039 1.59116,-0.84862 1.90939,-0.53038 3.81878,-1.06077 2.01547,-0.63647 4.03094,-1.16685 1.27293,-0.31823 3.39448,-0.9547 2.22762,-0.63646 4.56132,-1.48508 2.33371,-0.84862 4.2431,-1.90939 1.90939,-1.16685 2.54585,-2.54586 0.21216,-3.50055 -1.69723,-4.77348 -1.9094,-1.27293 -4.56133,-1.27293 -2.65193,0 -5.51602,0.9547 -2.86409,0.84862 -4.66741,1.69723 z" />
        <path
           inkscape:connector-curvature="0"
           id="path5158"
           style="font-style:normal;font-variant:normal;font-weight:normal;font-stretch:normal;font-size:96px;line-height:120px;font-family:Chalkboard;-inkscape-font-specification:Chalkboard;text-align:center;letter-spacing:5px;word-spacing:0px;text-anchor:middle;fill:#73a59e;fill-opacity:1"
           d="m 776.53215,667.78881 q 2.22762,-0.84862 3.81878,-0.21215 1.59116,0.63646 2.22763,2.01546 0.74254,1.37901 0.21215,3.07625 -0.42431,1.69724 -2.43978,2.86409 -3.50055,2.01547 -7.53149,3.7127 -4.03094,1.69724 -8.16796,2.33371 -4.13701,0.63646 -8.16795,-0.10608 -4.03094,-0.63647 -7.74365,-3.18232 -4.45525,-3.07625 -6.78895,-8.27404 -2.3337,-5.30386 -2.43978,-10.92596 -0.10607,-5.72818 2.01547,-10.92597 2.22763,-5.30387 6.89503,-8.48619 4.87956,-3.2884 10.60774,-4.87956 5.72817,-1.69723 11.56243,-0.4243 2.86408,0.63646 5.19779,2.75801 2.3337,2.01547 3.7127,4.77348 1.48509,2.65193 1.59116,5.72817 0.10608,2.97017 -1.48508,5.6221 -1.80331,2.97017 -5.19779,5.09172 -3.39447,2.01547 -7.42541,3.50055 -3.92487,1.379 -7.9558,2.3337 -3.92487,0.9547 -6.89503,1.80331 -1.27293,0.31824 -2.43978,0.10608 1.59116,3.39448 4.6674,5.6221 3.18232,2.12155 7.84973,1.80332 3.7127,-0.21216 7.42541,-2.01547 3.81878,-1.9094 6.89503,-3.71271 z m -20.68509,-22.59448 q -3.92486,2.01547 -5.83425,5.72818 -1.90939,3.60663 -1.90939,7.63757 0.74254,-0.53039 1.59116,-0.84862 1.90939,-0.53038 3.81878,-1.06077 2.01547,-0.63647 4.03094,-1.16685 1.27293,-0.31823 3.39448,-0.9547 2.22762,-0.63646 4.56132,-1.48508 2.33371,-0.84862 4.2431,-1.90939 1.90939,-1.16685 2.54585,-2.54586 0.21216,-3.50055 -1.69723,-4.77348 -1.9094,-1.27293 -4.56133,-1.27293 -2.65193,0 -5.51602,0.9547 -2.86409,0.84862 -4.66741,1.69723 z" />
      </g>
    </g>
    <path
       style="fill:#008080;fill-opacity:1;stroke-width:0.91200566"
       d="m 30.794211,207.17594 c -2.885973,-2.04282 -3.642643,-3.00895 -2.736017,-3.49339 1.597074,-0.85338 25.390596,-3.37515 39.146039,-4.1489 l 10.532655,-0.59249 3.093563,-6.51414 c 3.04548,-6.41292 3.092559,-6.70068 3.029056,-18.5153 l -0.06451,-12.00113 -3.011543,-3.74747 c -2.043378,-2.54271 -3.310045,-3.44896 -3.940052,-2.81895 -2.434847,2.43485 -3.416327,-0.98329 -1.037201,-3.61219 0.742783,-0.82077 2.203518,-6.57467 3.246078,-12.78645 1.04256,-6.21178 2.071346,-11.57857 2.286189,-11.92619 0.374755,-0.60637 7.3673,-1.98009 15.811973,-3.10634 3.009049,-0.40132 4.414689,-0.15678 5.679739,0.98807 1.59902,1.4471 1.76937,1.31543 3.48934,-2.6971 2.93468,-6.84633 9.50836,-9.64521 15.44418,-6.57568 3.56423,1.84314 4.34597,3.10709 4.99347,8.07374 0.59199,4.54074 0.69013,4.39207 -3.79374,5.74705 -0.95495,0.28858 -0.91809,0.75917 0.18256,2.33057 1.22714,1.752 1.22859,2.32929 0.0131,5.23851 -0.75136,1.79824 -2.17892,4.13473 -3.17237,5.19221 -1.01466,1.08006 -1.56621,2.54827 -1.25849,3.35015 0.30128,0.78511 -0.0823,2.64589 -0.85238,4.13507 -1.2875,2.48974 -1.26869,2.8266 0.23382,4.18635 0.91484,0.82792 3.20793,1.48421 5.21019,1.49118 4.98559,0.0174 7.68024,0.8784 7.68024,2.4541 0,1.05969 -0.76541,1.21248 -3.6406,0.72672 -3.27768,-0.55376 -3.72373,-0.39639 -4.47464,1.57867 -0.57221,1.50499 -0.3119,4.60788 0.82908,9.88297 1.95781,9.05155 6.08977,24.58095 6.70368,25.19487 0.2358,0.23579 5.90114,-0.27773 12.58967,-1.14116 11.22871,-1.44952 12.34928,-1.76989 14.61757,-4.17915 1.35113,-1.43509 2.91669,-2.60927 3.47902,-2.60927 1.32022,0 10.90655,-10.14895 10.92355,-11.56464 0.007,-0.59212 0.93214,-1.20773 2.05562,-1.36801 2.45948,-0.3509 2.89435,-2.14809 2.08576,-8.61983 -0.69759,-5.5833 -1.83055,-6.33969 -2.68375,-1.79172 -0.63727,3.39691 -2.99957,5.04264 -3.89369,2.7126 -0.30576,-0.79681 -0.085,-3.48882 0.49053,-5.98225 1.11864,-4.84622 1.3607,-12.706 0.49116,-15.94774 -0.29172,-1.08754 -1.73821,-2.47763 -3.21443,-3.0891 -1.47621,-0.61147 -3.1183,-1.92322 -3.64909,-2.915 -2.39472,-4.47456 2.87926,-20.60906 8.40899,-25.72536 1.96341,-1.81663 3.56984,-3.88722 3.56984,-4.60132 0,-1.82629 6.33602,-5.92416 9.15979,-5.92416 1.29379,0 3.21472,0.80343 4.26874,1.78539 1.90871,1.77823 1.92242,1.7762 3.41846,-0.50705 1.16837,-1.78316 2.13792,-2.23045 4.36427,-2.01339 2.74282,0.26741 2.92554,0.0698 4.38039,-4.736983 1.35248,-4.46857 1.85573,-5.102256 4.61092,-5.806053 4.23044,-1.080636 9.58949,1.183671 10.93895,4.621933 1.58148,4.029369 1.35271,8.697053 -0.56819,11.593323 -0.96927,1.46144 -1.6446,3.7794 -1.50072,5.15101 0.18,1.71599 -0.34884,2.92141 -1.69545,3.86462 -1.52589,1.06877 -2.14125,2.83773 -2.79313,8.02934 -0.45984,3.66222 -0.52401,6.97065 -0.14259,7.35206 0.38141,0.38142 3.66048,1.20227 7.28681,1.82412 6.18138,1.05999 6.67386,1.02051 7.88215,-0.63194 1.2481,-1.70686 1.39554,-1.71168 4.6654,-0.15239 2.60035,1.24002 3.26871,2.02262 2.90738,3.40435 -0.28022,1.07156 0.10437,2.11516 0.95489,2.59114 0.81837,0.45798 1.18905,1.40947 0.87149,2.23702 -0.8921,2.32476 -16.69232,2.44578 -26.86136,0.20573 -3.51717,-0.77477 -4.06392,0.94993 -1.14001,3.59603 1.00321,0.90789 1.82401,2.32583 1.82401,3.15097 0,1.9737 1.78111,3.68908 3.83043,3.68908 2.02464,0 2.03796,0.37127 0.11836,3.30095 -1.48125,2.26068 -1.4098,2.54405 2.59155,10.27751 2.26315,4.374 5.83953,10.90585 7.94752,14.51524 l 3.83272,6.56251 h 5.85956 5.85955 l -0.19974,-5.99316 -0.19976,-5.99317 3.64802,-1.28915 c 2.00641,-0.70903 4.10498,-1.29532 4.66349,-1.30287 0.5585,-0.007 2.11927,2.44589 3.46837,5.45209 1.34911,3.0062 3.22498,5.87902 4.16862,6.38404 2.42273,1.2966 7.02035,1.12395 12.24062,-0.45966 2.46233,-0.74698 6.04554,-1.35815 7.96267,-1.35815 3.88708,0 3.47769,0.8351 5.36517,-10.94406 1.26783,-7.91214 1.58101,-23.50235 0.57333,-28.54141 -0.49855,-2.49314 -1.32202,-3.70072 -2.94414,-4.31745 -1.73645,-0.6602 -2.14071,-1.32929 -1.76587,-2.92279 0.26736,-1.13662 0.17422,-2.47918 -0.20698,-2.98346 -0.99865,-1.32111 -6.75575,-3.18525 -9.87788,-3.19844 -2.06467,-0.009 -3.16029,-0.76582 -4.8247,-3.33395 -2.14529,-3.31009 -2.14749,-3.34232 -0.58123,-8.51528 1.07663,-3.55589 1.39195,-6.60143 1.00038,-9.66213 -0.31448,-2.45824 -0.57895,-5.49552 -0.58769,-6.74953 -0.0574,-8.230232 -0.0615,-8.213861 2.29263,-9.108903 1.27014,-0.482908 2.30936,-1.289113 2.30936,-1.791568 0,-2.751104 8.70042,-5.38931 19.15212,-5.807446 3.39661,-0.135887 4.08243,0.109467 3.97876,1.423412 -0.1004,1.272364 0.35232,1.47008 2.28001,0.995738 3.19345,-0.785805 5.84346,-2.501879 12.61383,-8.168383 9.60939,-8.042623 14.51163,-8.326437 19.07089,-1.104104 1.34358,2.128372 3.27404,4.542805 4.28991,5.365407 2.51789,2.038863 1.45644,4.515761 -1.93518,4.515761 -3.04651,0 -4.99049,1.865974 -7.03049,6.748369 -1.33879,3.204181 -1.68517,3.444168 -4.23502,2.934199 -2.41065,-0.48213 -2.67829,-0.345328 -2.0289,1.037058 1.4989,3.19079 1.4734,17.12042 -0.0379,20.73762 -0.78636,1.88195 -1.42972,4.83754 -1.42972,6.56797 0,3.38483 3.77512,10.68849 6.24547,12.08303 1.20649,0.68107 1.2795,1.07978 0.36658,2.00168 -1.69166,1.70827 -1.42418,3.01098 1.59601,7.77333 3.40481,5.36883 3.50191,8.74619 0.3423,11.9058 -2.21362,2.21362 -2.351,2.80248 -1.82587,7.82658 0.85897,8.21824 2.40546,12.69264 4.14728,11.99916 1.26395,-0.50323 20.54038,-2.11252 26.40413,-2.20436 1.86149,-0.0292 1.99814,0.16559 0.97844,1.39427 -1.96034,2.36205 -6.02982,4.04388 -9.78486,4.04388 -1.94773,0 -3.84903,0.30781 -4.22514,0.68401 -0.37609,0.3762 -3.3765,0.74893 -6.66756,0.82829 -3.29107,0.0793 -6.88888,0.62868 -7.99512,1.22073 -1.44273,0.77212 -2.95053,0.81714 -5.33335,0.15921 -2.22902,-0.61546 -3.50871,-0.61508 -3.88958,9.1e-4 -0.31737,0.51353 -1.89744,0.66895 -3.58407,0.35253 -1.8078,-0.33915 -3.26457,-0.16443 -3.63568,0.43604 -0.34058,0.55106 -1.9175,0.89008 -3.50428,0.75337 -1.58677,-0.13671 -3.41008,0.0759 -4.05178,0.47252 -2.26779,1.40157 -24.15276,3.04422 -27.53518,2.06675 -1.75561,-0.50735 -3.60242,-0.80025 -4.10402,-0.65089 -0.50161,0.14936 -2.14322,0.24199 -3.64802,0.20585 -1.50481,-0.0361 -4.08634,0.41514 -5.73672,1.00285 -2.07589,0.73924 -3.48127,0.78224 -4.56003,0.13954 -1.60552,-0.95654 -2.92921,-0.79939 -15.04396,1.78607 -5.3402,1.13967 -7.56328,1.26774 -8.96681,0.51659 -1.48886,-0.79681 -2.09695,-0.68318 -3.00743,0.56195 -1.17085,1.60124 -1.57949,1.602 -15.58138,0.0288 -2.00642,-0.22543 -2.72462,-0.20391 -1.59601,0.0478 2.29927,0.51284 2.69539,1.7128 0.80489,2.43826 -0.68591,0.26321 -7.76536,0.57245 -15.7321,0.6872 -11.22163,0.16162 -14.83689,0.51164 -16.04701,1.55362 -0.85913,0.73975 -2.19294,1.10291 -2.96402,0.80702 -0.7711,-0.29559 -1.40198,-0.17199 -1.40198,0.27497 0,1.09924 -6.14603,3.0646 -7.70852,2.46502 -0.6871,-0.26366 -4.6716,0.1323 -8.85445,0.87991 -4.27407,0.76391 -11.23974,1.23782 -15.90314,1.08196 -4.60494,-0.1539 -8.86678,0.13173 -9.57606,0.6418 -0.70296,0.50552 -3.74052,0.80454 -6.75014,0.66449 -10.51795,-0.48944 -11.89048,-0.47802 -16.7377,0.13927 -3.01172,0.38354 -5.32552,0.25328 -6.040449,-0.34005 -1.581671,-1.31268 -4.12602,-0.19174 -4.12602,1.81775 0,1.9067 -5.363948,2.92916 -13.680086,2.60765 -2.758817,-0.10666 -6.319884,0.10712 -7.913483,0.47507 -1.984466,0.45819 -3.781461,0.21185 -5.702939,-0.78178 -3.37247,-1.74397 -11.292696,-1.37877 -17.278433,0.7967 -4.677374,1.69996 -8.936826,1.8841 -9.428989,0.4076 -0.260792,-0.78237 -0.834173,-0.78237 -2.296058,0 -2.647074,1.41668 -2.873515,1.35989 -7.425616,-1.86228 z m 81.053709,-9.81574 c 2.97516,-0.44088 3.99712,-0.97004 3.71538,-1.92373 -0.35846,-1.21337 -0.73822,-4.66594 -0.90917,-8.26565 -0.081,-1.70501 -12.829,-9.42273 -13.79013,-8.34863 -0.34777,0.38865 -1.360561,2.75864 -2.250651,5.26666 -0.89009,2.50801 -2.5052,5.38083 -3.589133,6.38404 -2.757051,2.55172 -4.855316,6.16715 -4.381972,7.55041 0.402404,1.17595 11.040126,0.84331 21.205676,-0.6631 z m 75.99353,-11.269 c 0.80722,-3.41713 0.209,-5.58782 -1.03065,-3.73976 -0.34893,0.52018 -2.62874,2.30313 -5.06626,3.9621 -4.95437,3.37195 -4.49711,4.56323 1.44452,3.76334 3.54695,-0.47752 3.89389,-0.77473 4.65239,-3.98568 z m 28.65912,1.50107 c 3.06931,-0.33435 4.78803,-0.9497 4.78803,-1.71425 0,-1.15523 -11.09807,-21.60382 -12.97414,-23.90531 -0.51111,-0.627 -1.82296,-1.14001 -2.91522,-1.14001 -1.09227,0 -2.47843,-0.49248 -3.08035,-1.0944 -1.48539,-1.48539 -1.51427,8.29514 -0.0341,11.54377 0.84022,1.84408 0.74556,3.6312 -0.45601,8.60946 -0.83397,3.45527 -1.51631,6.98209 -1.51631,7.83738 0,1.64272 -0.15879,1.64406 16.1881,-0.13664 z m 34.95262,-1.47421 c -0.1128,-1.09048 -1.36371,-0.8793 -1.75561,0.2964 -0.20064,0.60193 0.12768,0.93025 0.72961,0.72961 0.60192,-0.20064 1.06362,-0.66235 1.026,-1.02601 z m 62.47229,-12.28927 c -1.36361,-11.96049 -1.92345,-12.42263 -7.40818,-6.11532 -4.41594,5.07824 -4.97667,5.63757 -7.17239,7.15455 -1.08444,0.74921 -1.52648,1.77236 -1.16863,2.7049 0.47269,1.23184 1.9849,1.4999 8.46132,1.4999 h 7.88575 z m -193.86951,-2.56017 c 0,-2.07657 -2.21343,-8.6119 -2.91675,-8.6119 -0.79511,0 -0.47942,3.09977 0.76628,7.52404 0.4055,1.44015 2.15047,2.32288 2.15047,1.08786 z m 181.05689,-16.86591 c 1.28924,-2.4931 0.99879,-3.60207 -0.94341,-3.60207 -0.90528,0 -3.18437,5.5407 -3.18437,7.74153 0,1.22128 2.81594,-1.60263 4.12778,-4.13946 z m -99.88838,0.31956 c 0,-1.83404 -0.26363,-2.19878 -1.0331,-1.42931 -0.56821,0.5682 -0.7863,1.67629 -0.48463,2.46241 0.83487,2.17566 1.51773,1.71085 1.51773,-1.0331 z m -2.73602,-11.7275 c 0,-0.78201 -0.41709,-1.16405 -0.92688,-0.84899 -0.50978,0.31507 -0.69077,0.95489 -0.40217,1.42183 0.78179,1.265 1.32905,1.02912 1.32905,-0.57284 z m -0.53211,-5.28768 c -0.58634,-1.52799 -2.20391,-2.09235 -2.20391,-0.76893 0,0.88725 2.03464,3.01179 2.46869,2.57774 0.17064,-0.17064 0.0515,-0.98461 -0.26478,-1.80881 z m 105.57996,-12.64021 c -0.65442,-0.65442 -1.0792,-0.70827 -1.0792,-0.1368 0,1.21733 1.07855,2.29588 1.68721,1.68721 0.25916,-0.25916 -0.0144,-0.95684 -0.60801,-1.55041 z m -3.19222,-12.74148 c -0.29113,-0.72753 -0.50724,-0.51143 -0.55099,0.55101 -0.0396,0.9614 0.17595,1.50005 0.479,1.197 0.30305,-0.30305 0.33544,-1.08965 0.072,-1.74801 z m 8.32088,-9.60312 c -1.34611,-2.808584 -4.38385,-3.981598 -4.38385,-1.69282 0,0.78918 0.34808,1.43488 0.7735,1.43488 0.42541,0 1.55402,1.74285 2.50802,3.87299 1.64993,3.68413 1.74849,3.75175 2.02128,1.38679 0.15772,-1.36741 -0.25581,-3.61824 -0.91895,-5.00184 z m -13.93294,-6.3613 -1.45449,-2.560693 0.59301,3.19202 c 0.74161,3.991893 1.60944,5.491363 2.00985,3.472703 0.16836,-0.848837 -0.3484,-2.695649 -1.14837,-4.10403 z m 14.71485,-10.707442 c -0.30167,-0.786121 -1.01568,-1.429311 -1.58668,-1.429311 -0.57202,0 -0.78964,0.647776 -0.48463,1.442599 0.30447,0.79343 0.55357,1.901517 0.55357,2.462415 0,0.743931 0.27949,0.740337 1.03311,-0.01329 0.5682,-0.568207 0.78629,-1.676294 0.48463,-2.462415 z m 7.58987,-5.761338 c -0.0339,-1.863433 -1.20542,-4.78803 -1.91793,-4.78803 -0.93596,0 -1.09705,3.964611 -0.19763,4.86403 0.81894,0.818938 2.13099,0.771802 2.11556,-0.076 z"
       id="path6190"
       inkscape:connector-curvature="0"
       transform="matrix(0.26458333,0,0,0.26458333,0,197)" />
    <path
       style="fill:#008080;fill-opacity:1;stroke-width:0.91200566"
       d="m 41.632851,302.87233 c -4.568762,-1.53316 -10.392195,-7.74286 -12.178999,-12.98684 -3.254365,-9.55104 -1.261433,-21.94229 4.896208,-30.44267 7.346193,-10.14112 19.708473,-12.07712 29.913528,-4.68462 4.46411,3.23379 5.671268,6.56845 3.318802,9.1679 -2.174108,2.40236 -4.673102,2.24993 -8.684109,-0.5297 -7.490502,-5.19092 -13.823519,-3.16136 -18.414803,5.90146 -7.82299,15.44195 3.841251,31.36119 15.679828,21.39968 3.749638,-3.15511 8.315123,-2.78177 9.560562,0.78181 2.566498,7.34353 -13.506728,14.94478 -24.091017,11.39298 z"
       id="path6192"
       inkscape:connector-curvature="0"
       transform="matrix(0.26458333,0,0,0.26458333,0,197)" />
    <path
       style="fill:#008080;fill-opacity:1;stroke-width:0.91200566"
       d="m 89.503783,304.32619 c -6.085915,-3.20841 -10.548767,-9.75087 -11.809676,-17.31277 -1.443947,-8.65961 3.163804,-21.29856 10.093442,-27.68608 5.538707,-5.1054 9.597081,-6.59023 16.940921,-6.19816 5.19272,0.27723 6.62258,0.74513 9.57197,3.13227 5.37184,4.34779 7.97703,10.28167 8.34229,19.00137 0.24268,5.79323 -0.1009,8.4087 -1.64503,12.52256 -2.36393,6.29799 -8.67562,13.57446 -14.01788,16.1606 -4.783,2.31542 -13.447639,2.50392 -17.476037,0.38021 z m 16.144767,-11.83245 c 6.2739,-5.89094 8.87566,-16.85873 5.62448,-23.71009 -3.93687,-8.29635 -12.793447,-7.60879 -19.395983,1.50574 -5.58799,7.714 -5.493154,18.55647 0.204239,23.35051 3.759681,3.16356 9.493234,2.67919 13.567264,-1.14616 z"
       id="path6194"
       inkscape:connector-curvature="0"
       transform="matrix(0.26458333,0,0,0.26458333,0,197)" />
    <path
       style="fill:#008080;fill-opacity:1;stroke-width:0.91200566"
       d="m 141.94411,303.10559 c -1.70447,-1.70447 -1.82401,-3.04002 -1.82401,-20.37878 0,-17.39653 -0.11386,-18.65781 -1.82401,-20.20547 -2.02682,-1.83424 -2.41699,-5.88227 -0.72961,-7.56965 1.50422,-1.50422 5.75471,-1.37237 8.94516,0.27748 2.51193,1.29897 2.87448,1.23139 6.82103,-1.27144 7.32364,-4.64451 14.61794,-4.48054 20.49017,0.46061 2.9754,2.50364 3.81799,7.1537 1.68308,9.2886 -1.67985,1.67985 -5.73228,1.30066 -7.54858,-0.70632 -3.47704,-3.84208 -7.25598,-2.95756 -14.21164,3.32646 l -3.59354,3.24655 v 16.25826 c 0,15.76696 -0.0613,16.30117 -2.02694,17.67799 -2.67884,1.87633 -3.98598,1.79084 -6.18111,-0.40429 z"
       id="path6196"
       inkscape:connector-curvature="0"
       transform="matrix(0.26458333,0,0,0.26458333,0,197)" />
    <path
       style="fill:#008080;fill-opacity:1;stroke-width:0.91200566"
       d="m 198.94446,303.9884 c -7.11174,-1.04964 -12.15498,-5.26481 -15.03645,-12.56755 -1.69113,-4.28599 -1.47867,-14.4274 0.42489,-20.28034 2.34253,-7.20267 5.12357,-10.37927 12.08889,-13.80828 5.44311,-2.67964 6.98015,-3.01894 13.67557,-3.01894 h 7.54322 v -10.51314 c 0,-8.03916 0.33409,-10.99013 1.41972,-12.54008 1.63346,-2.33209 3.8496,-2.58665 6.38602,-0.73354 1.67225,1.22174 1.8008,3.00273 2.32049,32.1482 0.30259,16.97014 0.86273,32.19237 1.24474,33.82717 0.84313,3.60807 -0.57975,5.69168 -3.88678,5.69168 -1.27849,0 -3.06166,-0.66709 -3.9626,-1.48243 -1.51805,-1.37381 -1.95275,-1.33451 -5.93304,0.53645 -5.17503,2.43255 -11.34143,3.47039 -16.28467,2.7408 z m 8.50964,-10.56479 c 1.54528,-0.30905 4.46939,-1.98264 6.49804,-3.71909 l 3.68844,-3.15716 v -10.44563 c 0,-11.97229 0.13847,-11.7753 -8.24385,-11.72768 -3.8001,0.0216 -6.08694,0.63532 -9.22938,2.47691 -5.24652,3.07467 -7.15092,6.88874 -7.15092,14.32161 0,10.79485 4.14261,14.31005 14.43767,12.25104 z"
       id="path6198"
       inkscape:connector-curvature="0"
       transform="matrix(0.26458333,0,0,0.26458333,0,197)" />
    <path
       style="fill:#008080;fill-opacity:1;stroke-width:0.91200566"
       d="m 258.22483,302.79536 c -7.96215,-3.60751 -12.52067,-11.07212 -13.07287,-21.40692 -0.67044,-12.54784 3.19145,-20.00878 12.78942,-24.70837 6.96766,-3.41167 12.83742,-4.59773 18.50059,-3.73828 8.06442,1.22387 13.609,7.97468 12.959,15.77822 -0.64767,7.77561 -6.90209,12.26285 -23.60432,16.93498 l -9.383,2.62472 3.02293,2.82384 c 5.19975,4.85729 11.97548,4.73081 20.83879,-0.389 6.63552,-3.83294 11.70097,-2.46645 11.07557,2.98783 -0.25148,2.19321 -1.34005,3.0897 -7.54195,6.21119 -6.54376,3.29355 -8.00596,3.67102 -15.04809,3.88473 -5.09583,0.15464 -8.74861,-0.19307 -10.53607,-1.00294 z m 5.37371,-27.14028 c 14.28398,-4.2183 18.11083,-7.07422 14.63127,-10.91909 -4.00957,-4.43052 -17.39972,-0.42509 -21.2034,6.34264 -2.18771,3.8925 -2.56876,6.4908 -0.95191,6.4908 0.57292,0 3.95874,-0.86146 7.52404,-1.91435 z"
       id="path6208"
       inkscape:connector-curvature="0"
       transform="matrix(0.26458333,0,0,0.26458333,0,197)" />
    <path
       style="fill:#008080;fill-opacity:1;stroke-width:0.91200566"
       d="m 316.55547,302.34815 c -11.20555,-5.22623 -16.20041,-22.15419 -10.30026,-34.90833 5.71874,-12.36197 26.05459,-19.07537 36.10466,-11.91909 3.02269,2.15234 6.60953,8.5982 6.60953,11.87787 0,2.97159 -2.19149,7.60598 -4.67969,9.89625 -2.98964,2.75181 -10.7661,6.06697 -19.97955,8.51742 -4.24433,1.12884 -7.88958,2.20003 -8.10056,2.38043 -0.87147,0.74514 4.06989,4.9025 6.96119,5.85671 4.00073,1.32036 8.36822,0.47439 15.10329,-2.92546 8.24011,-4.1596 13.65956,-2.71761 12.16509,3.23683 -0.49778,1.98329 -2.03553,3.15617 -7.65835,5.8412 -6.13704,2.93058 -8.02547,3.3919 -14.78755,3.6124 -6.07027,0.19795 -8.55166,-0.12014 -11.4378,-1.46623 z m 14.73377,-29.46588 c 2.56518,-0.95431 5.38949,-2.53679 6.27624,-3.51663 1.50847,-1.66685 1.5151,-1.92981 0.10303,-4.08492 -1.22911,-1.87585 -2.24182,-2.30338 -5.45615,-2.30338 -9.58046,0 -16.26727,4.74199 -18.22691,12.92573 l -0.58371,2.43766 6.61176,-1.86168 c 3.63647,-1.02392 8.71055,-2.64248 11.27574,-3.59678 z"
       id="path6210"
       inkscape:connector-curvature="0"
       transform="matrix(0.26458333,0,0,0.26458333,0,197)" />
  </g>
</svg>
